<svg xmlns="http://www.w3.org/2000/svg" xmlns:xlink="http://www.w3.org/1999/xlink" width="2063.551" height="1148.006" xmlns:v="https://vecta.io/nano"><style><![CDATA[.B{stroke-linejoin:round}.C{stroke-miterlimit:10}.D{fill:#337c98}.E{stroke:#72b5cf}.F{stroke-width:11.131}.G{fill:#fff}.H{stroke-linecap:round}]]></style><g fill="none" stroke="#337c98" stroke-width="8" class="B C H"><path d="M336.242 639.44v-91.641h1391.052l.015 91.641"/><path d="M1020.879 441.542v187.934m-16.416-191.866l16.416-17.506 16.417 17.506m-32.407.394h32.648"/></g><path d="M1392.743 631.589h665.242v325.979h-665.242z" class="B C D E F"/><g class="G"><path d="M1714.805 665.313v21.69h-3.555v-14.01a19.81 19.81 0 0 1 .09-1.815l-6.555 12.315c-.31.59-.785.885-1.425.885h-.57c-.64 0-1.115-.295-1.425-.885l-6.63-12.36.075.976.03.885v14.01h-3.555v-21.69h3.045l.465.016a1.26 1.26 0 0 1 .353.075c.105.04.2.104.285.194s.167.21.248.36l6.495 12.045.472.99.428 1.05.435-1.072.48-.998 6.405-12.015c.08-.15.165-.271.255-.36s.188-.154.292-.194a1.26 1.26 0 0 1 .353-.075l.465-.016h3.044z"/><use xlink:href="#B"/><use xlink:href="#C"/><use xlink:href="#D"/></g><path d="M1394.028 714.847h660.392m-660.392 80h660.392" class="B C D E F H"/><g class="G"><use xlink:href="#E"/><use xlink:href="#F"/><use xlink:href="#G"/><use xlink:href="#H"/><use xlink:href="#E" x="63.63"/><use xlink:href="#I"/><use xlink:href="#J"/><path d="M1560.714 840.19c.63-.71 1.345-1.285 2.145-1.725s1.74-.66 2.82-.66c.84 0 1.607.175 2.302.524s1.295.858 1.8 1.522.895 1.485 1.17 2.46.413 2.093.413 3.353c0 1.15-.155 2.216-.465 3.195s-.752 1.83-1.328 2.55-1.27 1.283-2.085 1.688-1.728.607-2.737.607c-.86 0-1.595-.132-2.205-.397a5.37 5.37 0 0 1-1.635-1.103v6.301h-3.705V838.09h2.265c.48 0 .795.225.945.675l.3 1.425zm.196 9.3c.42.51.877.87 1.373 1.08s1.032.315 1.612.315a3.54 3.54 0 0 0 1.515-.315 2.95 2.95 0 0 0 1.147-.96c.315-.43.557-.973.728-1.627s.255-1.428.255-2.318c0-.899-.073-1.662-.218-2.287s-.352-1.133-.622-1.522-.598-.675-.983-.855-.822-.27-1.313-.27c-.77 0-1.425.163-1.965.487s-1.05.783-1.53 1.373v6.899z"/><use xlink:href="#K"/><use xlink:href="#L"/><use xlink:href="#M"/><use xlink:href="#I" x="88.619"/><use xlink:href="#N"/><use xlink:href="#O"/><use xlink:href="#M" x="62.565"/><use xlink:href="#P"/><use xlink:href="#M" x="83.445"/><use xlink:href="#K" x="123.794"/><use xlink:href="#Q"/><use xlink:href="#R"/><use xlink:href="#S"/><use xlink:href="#L" x="-153.044" y="62.741"/><use xlink:href="#K" x="-126.269" y="62.741"/><use xlink:href="#T"/><use xlink:href="#D" x="-268.374" y="229.218"/><use xlink:href="#L" x="-94.844" y="62.741"/><use xlink:href="#L" x="-83.655" y="62.741"/><use xlink:href="#K" x="-56.88" y="62.741"/><use xlink:href="#L" x="-56.881" y="62.741"/><use xlink:href="#P" x="-132.585" y="62.741"/><use xlink:href="#M" x="-49.14" y="62.741"/><use xlink:href="#K" x="-8.791" y="62.741"/><use xlink:href="#Q" x="-132.585" y="62.742"/><use xlink:href="#R" x="-132.584" y="62.742"/><use xlink:href="#U"/><use xlink:href="#V"/><use xlink:href="#W"/><use xlink:href="#Q" x="-77.071" y="62.742"/><use xlink:href="#B" x="-74.143" y="229.218"/><use xlink:href="#E" x="224.456" y="62.742"/><use xlink:href="#K" x="112.557" y="62.741"/><use xlink:href="#C" x="-32.848" y="229.218"/><use xlink:href="#L" x="123.567" y="62.741"/><use xlink:href="#B" x="6.002" y="229.218"/><use xlink:href="#M" x="140.413" y="62.741"/><use xlink:href="#S" x="21.914" y="62.741"/></g><path d="M688.379 5.565h665.242v395.979H688.379z" class="B C D E F"/><g class="G"><use xlink:href="#T" x="-731.14" y="-778.246"/><use xlink:href="#B" x="-971.539" y="-549.028"/><use xlink:href="#E" x="-672.941" y="-715.504"/><use xlink:href="#X"/><use xlink:href="#Y"/><use xlink:href="#M" x="-778.059" y="-715.505"/><path d="M852.06 137.976h-3.705V125.36h-7.14v8.34c0 .48.118.855.353 1.125s.558.405.968.405c.23 0 .422-.027.578-.082s.29-.113.405-.173l.308-.173c.09-.055.18-.082.27-.082.11 0 .2.027.27.082s.145.138.225.248l1.11 1.8a5.61 5.61 0 0 1-1.86 1.02c-.7.23-1.425.346-2.175.346-1.34 0-2.368-.378-3.083-1.133s-1.072-1.797-1.072-3.127v-8.596h-1.575a.72.72 0 0 1-.51-.194c-.14-.13-.21-.325-.21-.585v-1.471l2.475-.42.78-4.185c.05-.2.145-.355.285-.465s.32-.165.54-.165h1.92v4.845h10.845v15.256zm.645-19.935a2.16 2.16 0 0 1-.195.907c-.13.285-.303.532-.518.742a2.45 2.45 0 0 1-.765.503c-.295.125-.607.188-.938.188-.32 0-.62-.063-.9-.188a2.43 2.43 0 0 1-.735-.503c-.21-.21-.378-.457-.503-.742s-.188-.588-.188-.907c0-.33.063-.638.188-.923a2.5 2.5 0 0 1 .503-.75c.21-.215.455-.385.735-.51s.58-.188.9-.188a2.38 2.38 0 0 1 .938.188c.295.125.55.295.765.51s.387.465.518.75a2.2 2.2 0 0 1 .195.923z"/><use xlink:href="#X" x="66.435"/><use xlink:href="#Q" x="-841.195" y="-715.504"/><use xlink:href="#K" x="-693.926" y="-715.505"/><use xlink:href="#J" x="-810.353" y="-621.507"/><use xlink:href="#J" x="-796.358" y="-621.507"/><use xlink:href="#Z"/><use xlink:href="#a"/><use xlink:href="#Z" x="24.54"/><path d="M798.137 232.214c-1.34 0-2.368-.377-3.083-1.133s-1.072-1.797-1.072-3.127v-8.596h-1.575c-.2 0-.37-.064-.51-.193s-.21-.326-.21-.586v-1.471l2.475-.404.78-4.199a.82.82 0 0 1 .285-.465c.14-.111.32-.166.54-.166h1.92v4.846h4.11v2.639h-4.11v8.34c0 .48.118.855.353 1.125s.558.406.968.406c.23 0 .422-.027.578-.082a3.32 3.32 0 0 0 .405-.174l.308-.172c.09-.055.18-.082.27-.082.11 0 .2.027.27.082s.145.137.225.248l1.11 1.799c-.54.451-1.16.791-1.86 1.02s-1.427.345-2.177.345z"/><use xlink:href="#J" x="-739.044" y="-621.507"/><use xlink:href="#J" x="-725.049" y="-621.507"/><path d="M834.631 222.569a24.82 24.82 0 0 0 .75 6.074 24.77 24.77 0 0 0 2.145 5.611 1.55 1.55 0 0 1 .172.531c.015.156.002.291-.038.406s-.103.215-.188.299-.178.158-.277.219l-1.65 1.004c-.74-1.141-1.371-2.285-1.89-3.436a24.64 24.64 0 0 1-1.275-3.479 24.74 24.74 0 0 1-.728-3.557c-.155-1.199-.232-2.424-.232-3.674a28.86 28.86 0 0 1 .232-3.684c.155-1.203.397-2.393.728-3.563a24.41 24.41 0 0 1 1.275-3.471c.52-1.146 1.15-2.289 1.89-3.428l1.65.99a1.36 1.36 0 0 1 .277.217.8.8 0 0 1 .188.299c.04.115.053.252.038.406s-.073.338-.172.547c-.93 1.74-1.646 3.607-2.145 5.604a24.91 24.91 0 0 0-.75 6.085z"/><use xlink:href="#b"/><use xlink:href="#c"/><path d="M872.806 209.685v22.289h-3.705v-22.289h3.705zm4.785 22.289v-12.6l-1.335-.209c-.291-.061-.523-.164-.698-.309s-.262-.352-.262-.623v-1.514h2.295v-1.141c0-.879.132-1.67.397-2.369a4.92 4.92 0 0 1 1.14-1.785c.495-.49 1.098-.865 1.808-1.125s1.51-.391 2.4-.391c.71 0 1.37.096 1.98.285l-.075 1.859c-.01.141-.05.254-.12.338a.66.66 0 0 1-.277.195c-.115.045-.248.074-.397.09a4.55 4.55 0 0 1-.48.021c-.44 0-.833.049-1.178.143a2 2 0 0 0-.877.496c-.24.234-.422.545-.547.93s-.188.863-.188 1.432v1.021h4.005v2.639h-3.885v12.615h-3.706zm8.954 3.675c-.18-.15-.27-.336-.27-.555 0-.08.027-.17.083-.271s.123-.189.203-.27l.405-.441a6.21 6.21 0 0 0 .48-.602 5.71 5.71 0 0 0 .442-.734 3.73 3.73 0 0 0 .308-.848c-.32 0-.61-.057-.87-.172a2 2 0 0 1-.667-.473 2.21 2.21 0 0 1-.435-.705c-.105-.27-.157-.564-.157-.885 0-.279.052-.543.157-.787a1.96 1.96 0 0 1 .443-.646c.19-.184.42-.33.69-.434a2.42 2.42 0 0 1 .885-.158c.38 0 .713.068.998.203s.52.32.705.555a2.5 2.5 0 0 1 .42.811 3.23 3.23 0 0 1 .143.967c0 .48-.073.984-.217 1.516a7.75 7.75 0 0 1-.638 1.59c-.28.531-.627 1.045-1.042 1.545a9.55 9.55 0 0 1-1.417 1.379l-.649-.585z"/><use xlink:href="#d"/><use xlink:href="#a" x="149.368"/><use xlink:href="#e"/><use xlink:href="#J" x="-593.23" y="-621.507"/><use xlink:href="#f"/><path d="M984.975 216.345c1.14 0 2.177.184 3.112.555s1.735.895 2.4 1.574 1.178 1.51 1.538 2.49.54 2.076.54 3.285c0 1.221-.18 2.32-.54 3.301s-.873 1.814-1.538 2.504-1.465 1.221-2.4 1.59-1.973.555-3.112.555c-1.15 0-2.195-.184-3.135-.555s-1.743-.9-2.407-1.59-1.18-1.525-1.545-2.504-.548-2.08-.548-3.301c0-1.209.183-2.305.548-3.285s.879-1.811 1.545-2.49 1.467-1.205 2.407-1.574 1.984-.555 3.135-.555zm0 13.004c1.28 0 2.228-.43 2.842-1.289s.922-2.121.922-3.781-.307-2.924-.922-3.795-1.563-1.305-2.842-1.305c-1.3 0-2.263.438-2.888 1.313s-.938 2.139-.938 3.787.313 2.908.938 3.773 1.587 1.297 2.888 1.297z"/><use xlink:href="#g"/><use xlink:href="#h"/><use xlink:href="#d" x="136.634"/><use xlink:href="#b" x="214.618"/><path d="M1083.179 231.974h-3.705v-12.615h-7.14v8.34c0 .48.118.855.353 1.125s.558.406.968.406c.23 0 .422-.027.578-.082a3.32 3.32 0 0 0 .405-.174l.308-.172c.09-.055.18-.082.27-.082.11 0 .2.027.27.082s.145.137.225.248l1.11 1.799c-.54.451-1.16.791-1.86 1.02s-1.425.346-2.175.346c-1.34 0-2.368-.377-3.083-1.133s-1.072-1.797-1.072-3.127v-8.596h-1.575c-.2 0-.37-.064-.51-.193s-.21-.326-.21-.586v-1.471l2.475-.42.78-4.184a.82.82 0 0 1 .285-.465c.14-.111.32-.166.54-.166h1.92v4.846h10.845v15.254zm.645-19.934a2.16 2.16 0 0 1-.195.906c-.13.285-.303.533-.518.742s-.47.379-.765.504-.607.188-.938.188c-.32 0-.62-.063-.9-.188s-.525-.293-.735-.504a2.39 2.39 0 0 1-.503-.742c-.125-.285-.188-.588-.188-.906a2.28 2.28 0 0 1 .188-.924 2.5 2.5 0 0 1 .503-.75c.21-.215.455-.385.735-.51s.58-.188.9-.188a2.38 2.38 0 0 1 .938.188c.295.125.55.295.765.51s.387.465.518.75.195.594.195.924z"/><use xlink:href="#h" x="66.435"/><path d="M1107.733 209.685v22.289h-3.705v-22.289h3.705z"/><use xlink:href="#c" x="258.402"/><path d="M1128.868 222.569a25.15 25.15 0 0 0-.743-6.082c-.495-1.996-1.208-3.863-2.137-5.604-.11-.209-.173-.393-.188-.547s-.003-.291.037-.406.103-.215.188-.299a1.22 1.22 0 0 1 .293-.217l1.65-.99c.74 1.139 1.37 2.281 1.89 3.428a24.41 24.41 0 0 1 1.275 3.471 24.08 24.08 0 0 1 .72 3.563 29.81 29.81 0 0 1 .225 3.684c0 1.25-.075 2.475-.225 3.674a24.08 24.08 0 0 1-.72 3.557c-.33 1.17-.755 2.33-1.275 3.479s-1.15 2.295-1.89 3.436l-1.65-1.004a1.28 1.28 0 0 1-.293-.219.8.8 0 0 1-.188-.299c-.04-.115-.052-.25-.037-.406s.077-.332.188-.531c.93-1.75 1.643-3.621 2.137-5.611s.743-4.016.743-6.077z"/><use xlink:href="#f" x="-231.118" y="125.482"/><path d="M746.958 344.212c1.77-1.621 3.9-2.43 6.39-2.43.9 0 1.705.146 2.415.441s1.31.705 1.8 1.23.862 1.152 1.117 1.883.383 1.529.383 2.4v9.719h-1.68c-.35 0-.62-.053-.81-.156s-.34-.318-.45-.639l-.33-1.109c-.39.35-.771.658-1.14.922a6.65 6.65 0 0 1-1.155.668 6.26 6.26 0 0 1-1.282.412 7.32 7.32 0 0 1-1.507.143 5.94 5.94 0 0 1-1.8-.262c-.55-.176-1.025-.438-1.425-.787s-.71-.785-.93-1.307-.33-1.125-.33-1.814c0-.391.065-.777.195-1.162s.342-.752.637-1.104.677-.68 1.147-.988 1.047-.58 1.732-.811a14.84 14.84 0 0 1 2.393-.563c.911-.145 1.95-.232 3.12-.264v-.898c0-1.031-.22-1.793-.66-2.289s-1.075-.742-1.905-.742c-.6 0-1.098.07-1.493.211s-.742.297-1.042.473l-.817.473a1.63 1.63 0 0 1-.817.209c-.26 0-.48-.066-.66-.203s-.325-.291-.435-.471l-.661-1.185zm8.489 6.674c-1.07.051-1.97.143-2.7.277s-1.315.309-1.755.518-.755.455-.945.736a1.59 1.59 0 0 0-.285.914c0 .65.192 1.115.578 1.395s.887.422 1.507.422c.76 0 1.417-.139 1.973-.414s1.097-.691 1.627-1.252v-2.596z"/><use xlink:href="#i"/><path d="M787.067 342.591v1.381c0 .439-.265.711-.795.811l-1.38.254a4.69 4.69 0 0 1 .315 1.74c0 .76-.153 1.447-.458 2.063a4.58 4.58 0 0 1-1.268 1.568 5.94 5.94 0 0 1-1.913.996c-.735.236-1.528.354-2.377.354a8.44 8.44 0 0 1-.87-.045l-.825-.121c-.48.291-.72.615-.72.977 0 .309.143.537.427.682s.663.248 1.133.307a15.64 15.64 0 0 0 1.605.113l1.845.098c.63.051 1.245.137 1.845.262s1.135.322 1.605.594a3.14 3.14 0 0 1 1.132 1.102c.285.465.428 1.063.428 1.793 0 .68-.167 1.34-.502 1.98s-.82 1.209-1.455 1.709-1.415.902-2.34 1.207-1.978.459-3.158.459c-1.16 0-2.17-.113-3.03-.338s-1.575-.525-2.145-.9-.995-.807-1.275-1.297-.42-1-.42-1.531c0-.719.218-1.322.653-1.807s1.032-.873 1.792-1.162c-.41-.211-.735-.49-.975-.84s-.36-.811-.36-1.381c0-.23.042-.467.127-.713a3.05 3.05 0 0 1 .375-.727 3.59 3.59 0 0 1 .623-.684c.25-.215.545-.406.885-.576-.78-.42-1.393-.98-1.837-1.68s-.667-1.521-.667-2.461c0-.76.152-1.447.458-2.063a4.59 4.59 0 0 1 1.275-1.574c.545-.436 1.19-.768 1.935-.998s1.557-.346 2.438-.346c.66 0 1.28.068 1.86.203s1.11.332 1.59.592h4.424zm-3.69 15.556c0-.301-.09-.547-.27-.736s-.425-.338-.735-.441-.672-.184-1.087-.232l-1.32-.113-1.44-.068-1.448-.119a3.47 3.47 0 0 0-.998.811c-.255.309-.382.67-.382 1.08 0 .27.067.521.203.758s.35.436.645.607.677.301 1.147.396 1.045.143 1.725.143c.69 0 1.285-.053 1.785-.158s.913-.25 1.238-.434.563-.406.712-.66.225-.535.225-.834zm-4.185-8.761c.46 0 .86-.063 1.2-.188s.623-.297.848-.518.395-.484.51-.795a2.9 2.9 0 0 0 .172-1.02c0-.76-.228-1.361-.683-1.807s-1.138-.668-2.047-.668-1.593.223-2.047.668-.683 1.047-.683 1.807a2.88 2.88 0 0 0 .172 1.006 2.23 2.23 0 0 0 .51.803c.225.225.51.398.855.523s.743.189 1.193.189z"/><use xlink:href="#e" x="-145.348" y="125.483"/><use xlink:href="#i" x="42.089"/><use xlink:href="#J" x="-727.389" y="-496.024"/><use xlink:href="#f" x="-134.159" y="125.482"/><path d="M850.816 341.827c1.14 0 2.177.184 3.112.555s1.735.895 2.4 1.574 1.178 1.51 1.538 2.49.54 2.076.54 3.285c0 1.221-.18 2.32-.54 3.301s-.873 1.814-1.538 2.504-1.465 1.221-2.4 1.59-1.973.555-3.112.555c-1.15 0-2.195-.184-3.135-.555s-1.743-.9-2.407-1.59-1.18-1.525-1.545-2.504-.548-2.08-.548-3.301c0-1.209.183-2.305.548-3.285s.879-1.811 1.545-2.49 1.467-1.205 2.407-1.574 1.985-.555 3.135-.555zm0 13.004c1.28 0 2.228-.43 2.842-1.289s.922-2.121.922-3.781-.307-2.924-.922-3.795-1.563-1.305-2.842-1.305c-1.3 0-2.263.438-2.888 1.313s-.938 2.139-.938 3.787.313 2.908.938 3.773 1.588 1.297 2.888 1.297z"/><use xlink:href="#g" x="-134.158" y="125.482"/><path d="M890.071 343.956c.62-.65 1.307-1.166 2.063-1.553s1.617-.576 2.587-.576c.89 0 1.692.174 2.407.523a5.18 5.18 0 0 1 1.83 1.508c.505.656.893 1.447 1.163 2.379s.405 1.975.405 3.135c0 1.25-.155 2.385-.465 3.404s-.752 1.893-1.328 2.617-1.267 1.289-2.077 1.688-1.71.6-2.7.6c-.48 0-.915-.047-1.305-.143a4.86 4.86 0 0 1-1.08-.396 4.29 4.29 0 0 1-.908-.623 7.74 7.74 0 0 1-.788-.816l-.165 1.035c-.06.26-.163.443-.307.555s-.343.164-.593.164h-2.445v-22.289h3.705v8.788zm0 9.51c.42.51.877.871 1.373 1.08s1.017.316 1.567.316c.57 0 1.082-.104 1.538-.309a2.93 2.93 0 0 0 1.162-.959c.32-.436.565-.99.735-1.666s.255-1.482.255-2.422c0-1.689-.28-2.912-.84-3.668s-1.365-1.133-2.415-1.133c-.71 0-1.33.164-1.86.488s-1.035.783-1.515 1.373v6.9z"/><use xlink:href="#d" x="2.475" y="125.482"/><use xlink:href="#b" x="80.459" y="125.482"/><path d="M949.021 357.456h-3.705v-12.615h-7.141v8.34c0 .48.117.855.353 1.125s.558.406.968.406c.229 0 .422-.027.577-.082a3.32 3.32 0 0 0 .405-.174l.308-.172c.09-.055.18-.082.27-.082.11 0 .2.027.271.082a1.2 1.2 0 0 1 .225.248l1.11 1.799c-.54.451-1.16.791-1.86 1.02s-1.425.346-2.175.346c-1.34 0-2.368-.377-3.083-1.133s-1.072-1.797-1.072-3.127v-8.596h-1.575c-.2 0-.37-.064-.51-.193s-.21-.326-.21-.586v-1.471l2.475-.42.78-4.184a.82.82 0 0 1 .285-.465c.14-.111.32-.166.54-.166h1.92v4.846h10.846v15.254zm.644-19.934a2.16 2.16 0 0 1-.195.906c-.13.285-.303.533-.518.742a2.47 2.47 0 0 1-.765.504c-.295.125-.607.188-.938.188-.32 0-.62-.063-.9-.188a2.41 2.41 0 0 1-.734-.504 2.39 2.39 0 0 1-.503-.742c-.125-.285-.188-.588-.188-.906a2.28 2.28 0 0 1 .188-.924 2.5 2.5 0 0 1 .503-.75 2.37 2.37 0 0 1 .734-.51c.28-.125.58-.188.9-.188a2.38 2.38 0 0 1 .938.188c.295.125.55.295.765.51s.388.465.518.75.195.594.195.924zm6.84 6.434c.62-.65 1.308-1.166 2.063-1.553s1.617-.576 2.587-.576c.891 0 1.692.174 2.408.523a5.19 5.19 0 0 1 1.83 1.508c.505.656.893 1.447 1.162 2.379s.405 1.975.405 3.135c0 1.25-.155 2.385-.465 3.404s-.753 1.893-1.328 2.617-1.268 1.289-2.077 1.688-1.71.6-2.7.6c-.479 0-.915-.047-1.305-.143a4.84 4.84 0 0 1-1.08-.396 4.26 4.26 0 0 1-.907-.623 7.74 7.74 0 0 1-.788-.816l-.165 1.035c-.06.26-.162.443-.308.555s-.343.164-.592.164H952.8v-22.289h3.705v8.788zm0 9.51c.42.51.877.871 1.372 1.08a3.99 3.99 0 0 0 1.567.316c.57 0 1.083-.104 1.538-.309a2.93 2.93 0 0 0 1.162-.959c.32-.436.565-.99.735-1.666s.255-1.482.255-2.422c0-1.689-.28-2.912-.84-3.668s-1.365-1.133-2.415-1.133c-.71 0-1.33.164-1.86.488s-1.035.783-1.515 1.373v6.9zm17.07-18.299v22.289h-3.705v-22.289h3.705z"/><use xlink:href="#j"/><path d="M995.773 348.052a24.82 24.82 0 0 0 .75 6.074c.5 1.99 1.215 3.861 2.146 5.611a1.55 1.55 0 0 1 .172.531c.016.156.003.291-.037.406s-.103.215-.188.299-.178.158-.277.219l-1.65 1.004c-.74-1.141-1.37-2.285-1.89-3.436s-.945-2.309-1.275-3.479-.572-2.355-.728-3.557-.232-2.424-.232-3.674a28.86 28.86 0 0 1 .232-3.684c.155-1.203.397-2.393.728-3.563s.755-2.326 1.275-3.471 1.149-2.289 1.89-3.428l1.65.99a1.36 1.36 0 0 1 .277.217.8.8 0 0 1 .188.299c.04.115.053.252.037.406s-.072.338-.172.547c-.931 1.74-1.646 3.607-2.146 5.604a24.95 24.95 0 0 0-.75 6.085z"/><use xlink:href="#k"/><path d="M1017.029 350.226c.061.791.2 1.473.42 2.049s.511 1.049.87 1.424a3.39 3.39 0 0 0 1.283.84 4.63 4.63 0 0 0 1.642.279c.601 0 1.118-.07 1.553-.211s.815-.295 1.141-.465l.854-.465c.245-.141.482-.211.713-.211.31 0 .54.115.689.346l1.065 1.35c-.41.48-.87.883-1.38 1.207a7.72 7.72 0 0 1-1.598.781 8.73 8.73 0 0 1-1.695.412c-.575.08-1.132.119-1.672.119-1.07 0-2.065-.178-2.985-.531a6.66 6.66 0 0 1-2.4-1.576c-.68-.695-1.215-1.555-1.604-2.58s-.585-2.211-.585-3.563a8.51 8.51 0 0 1 .51-2.961c.34-.926.827-1.73 1.463-2.416s1.409-1.227 2.324-1.627 1.948-.6 3.098-.6c.97 0 1.865.154 2.686.465a5.85 5.85 0 0 1 2.114 1.357c.59.595 1.053 1.324 1.388 2.189s.503 1.854.503 2.963c0 .561-.061.938-.181 1.133s-.35.291-.689.291h-9.527zm7.066-2.235c0-.48-.067-.932-.202-1.357a3.25 3.25 0 0 0-.608-1.117c-.27-.32-.612-.572-1.027-.758s-.897-.277-1.447-.277c-1.07 0-1.912.305-2.527.916s-1.008 1.475-1.178 2.594h6.989zm9.854-12.824v22.289h-3.705v-22.289h3.705zm4.785 22.289v-12.6l-1.335-.209c-.29-.061-.522-.164-.697-.309s-.263-.352-.263-.623v-1.514h2.295v-1.141c0-.879.132-1.67.397-2.369a4.92 4.92 0 0 1 1.14-1.785c.495-.49 1.098-.865 1.808-1.125s1.51-.391 2.4-.391c.71 0 1.37.096 1.979.285l-.075 1.859c-.01.141-.05.254-.119.338a.67.67 0 0 1-.278.195c-.115.045-.247.074-.397.09s-.31.021-.479.021c-.44 0-.833.049-1.178.143s-.638.262-.877.496-.423.545-.548.93-.188.863-.188 1.432v1.021h4.005v2.639h-3.885v12.615h-3.705zm8.954 3.676c-.18-.15-.27-.336-.27-.555 0-.08.027-.17.082-.271a1.25 1.25 0 0 1 .203-.27l.405-.441c.159-.176.319-.375.479-.602a5.71 5.71 0 0 0 .442-.734c.134-.265.237-.547.308-.848-.32 0-.61-.057-.87-.172a2 2 0 0 1-.667-.473c-.186-.199-.33-.436-.436-.705a2.44 2.44 0 0 1-.157-.885c0-.279.053-.543.157-.787s.253-.461.442-.646.42-.33.69-.434a2.44 2.44 0 0 1 .885-.158c.38 0 .713.068.998.203s.52.32.705.555a2.51 2.51 0 0 1 .42.811 3.23 3.23 0 0 1 .143.967c0 .48-.073.984-.218 1.516a7.75 7.75 0 0 1-.638 1.59 9.06 9.06 0 0 1-1.043 1.545 9.5 9.5 0 0 1-1.417 1.379l-.643-.585z"/><use xlink:href="#l"/><path d="M1082.443 343.956c.31-.309.638-.598.982-.861s.71-.49 1.095-.676.798-.33 1.238-.436.92-.156 1.439-.156c.84 0 1.585.143 2.235.428s1.192.684 1.627 1.199.766 1.131.99 1.846.338 1.502.338 2.361v9.795h-3.705v-9.795c0-.939-.215-1.666-.646-2.182s-1.085-.773-1.965-.773a3.86 3.86 0 0 0-1.8.436c-.561.291-1.09.686-1.59 1.186v11.129h-3.705v-15.389h2.265c.48 0 .795.225.945.674l.257 1.214z"/><use xlink:href="#J" x="-447.311" y="-496.024"/><path d="M1120.919 345.321c-.11.141-.218.25-.323.33s-.257.121-.457.121c-.19 0-.375-.059-.556-.174l-.645-.389c-.25-.146-.548-.275-.893-.391s-.772-.172-1.282-.172c-.65 0-1.221.117-1.71.352a3.24 3.24 0 0 0-1.223 1.012c-.325.441-.567.973-.728 1.598s-.24 1.334-.24 2.123c0 .82.088 1.551.263 2.189s.428 1.178.758 1.613.729.766 1.199.99 1 .338 1.591.338 1.067-.072 1.433-.219a4.59 4.59 0 0 0 .922-.48l.652-.479a.99.99 0 0 1 .623-.219c.3 0 .524.115.675.346l1.065 1.35c-.41.48-.855.883-1.336 1.207a7.17 7.17 0 0 1-1.492.781c-.514.195-1.045.332-1.59.412a11.2 11.2 0 0 1-1.628.119 6.86 6.86 0 0 1-2.685-.531c-.84-.355-1.575-.873-2.205-1.553s-1.128-1.512-1.492-2.498-.548-2.107-.548-3.367c0-1.129.162-2.178.487-3.143s.803-1.801 1.433-2.504 1.41-1.258 2.34-1.658 2-.6 3.21-.6c1.15 0 2.158.184 3.022.555a7.37 7.37 0 0 1 2.333 1.59l-.973 1.351zm9.974-3.494c1.141 0 2.178.184 3.113.555a6.84 6.84 0 0 1 2.399 1.574c.665.679 1.178 1.51 1.538 2.49s.54 2.076.54 3.285c0 1.221-.181 2.32-.54 3.301s-.873 1.814-1.538 2.504a6.71 6.71 0 0 1-2.399 1.59c-.936.371-1.973.555-3.113.555-1.149 0-2.194-.184-3.135-.555a6.69 6.69 0 0 1-2.407-1.59c-.665-.69-1.181-1.525-1.545-2.504s-.548-2.08-.548-3.301c0-1.209.183-2.305.548-3.285s.88-1.811 1.545-2.49a6.8 6.8 0 0 1 2.407-1.574c.94-.371 1.985-.555 3.135-.555zm0 13.004c1.28 0 2.228-.43 2.843-1.289s.923-2.121.923-3.781-.308-2.924-.923-3.795-1.563-1.305-2.843-1.305c-1.3 0-2.263.438-2.887 1.313s-.938 2.139-.938 3.787.312 2.908.938 3.773 1.587 1.297 2.887 1.297zm10.425 2.625v-15.389h2.265c.48 0 .795.225.945.674l.24 1.141c.27-.301.552-.576.848-.826a5.51 5.51 0 0 1 .944-.645c.335-.18.695-.322 1.08-.428s.808-.156 1.268-.156c.97 0 1.768.262 2.393.787s1.093 1.223 1.402 2.092c.24-.51.54-.947.9-1.313a4.93 4.93 0 0 1 1.185-.893c.43-.229.888-.398 1.373-.51a6.64 6.64 0 0 1 1.462-.164c.85 0 1.605.129 2.266.389a4.34 4.34 0 0 1 1.665 1.141c.45.5.792 1.109 1.027 1.83s.353 1.545.353 2.475v9.795h-3.705v-9.795c0-.98-.216-1.717-.646-2.213s-1.06-.742-1.89-.742c-.38 0-.732.066-1.058.195a2.52 2.52 0 0 0-.854.563 2.57 2.57 0 0 0-.578.922c-.14.371-.21.795-.21 1.275v9.795h-3.72v-9.795c0-1.029-.208-1.779-.623-2.25s-1.022-.705-1.822-.705a3 3 0 0 0-1.508.398c-.465.264-.897.627-1.297 1.088v11.264h-3.705z"/><use xlink:href="#m"/><use xlink:href="#l" x="121.41"/><use xlink:href="#k" x="199.393"/><path d="M1229.098 357.456h-3.705v-12.615h-7.141v8.34c0 .48.117.855.353 1.125s.558.406.968.406c.229 0 .422-.027.577-.082a3.32 3.32 0 0 0 .405-.174l.308-.172c.09-.055.18-.082.27-.082.11 0 .2.027.271.082s.145.137.225.248l1.11 1.799c-.54.451-1.16.791-1.86 1.02s-1.425.346-2.175.346c-1.34 0-2.367-.377-3.082-1.133s-1.073-1.797-1.073-3.127v-8.596h-1.574a.73.73 0 0 1-.511-.193c-.14-.131-.21-.326-.21-.586v-1.471l2.476-.42.779-4.184c.05-.201.146-.355.285-.465s.32-.166.54-.166h1.92v4.846h10.846v15.254zm.644-19.934a2.16 2.16 0 0 1-.195.906c-.13.285-.303.533-.518.742s-.47.379-.765.504-.607.188-.938.188c-.32 0-.62-.063-.9-.188s-.524-.293-.734-.504a2.39 2.39 0 0 1-.503-.742c-.125-.285-.188-.588-.188-.906a2.28 2.28 0 0 1 .188-.924 2.5 2.5 0 0 1 .503-.75 2.37 2.37 0 0 1 .734-.51c.28-.125.58-.188.9-.188a2.38 2.38 0 0 1 .938.188c.295.125.55.295.765.51s.388.465.518.75.195.594.195.924z"/><use xlink:href="#m" x="66.434"/><path d="M1253.652 335.167v22.289h-3.705v-22.289h3.705z"/><use xlink:href="#j" x="280.077"/><path d="M1274.787 348.052c0-2.061-.247-4.088-.742-6.082s-1.208-3.863-2.138-5.604c-.11-.209-.173-.393-.188-.547s-.003-.291.037-.406a.77.77 0 0 1 .188-.299 1.22 1.22 0 0 1 .293-.217l1.649-.99c.74 1.139 1.37 2.281 1.891 3.428s.944 2.301 1.274 3.471a24.21 24.21 0 0 1 .721 3.563c.149 1.205.225 2.434.225 3.684s-.075 2.475-.225 3.674-.391 2.387-.721 3.557-.755 2.33-1.274 3.479-1.15 2.295-1.891 3.436l-1.649-1.004a1.28 1.28 0 0 1-.293-.219.8.8 0 0 1-.188-.299c-.04-.115-.053-.25-.037-.406s.077-.332.188-.531a24.52 24.52 0 0 0 2.138-5.611 25.09 25.09 0 0 0 .742-6.077zm-539.079-60.567c.06.791.2 1.473.42 2.047s.51 1.051.87 1.426.787.654 1.282.84 1.042.277 1.643.277 1.118-.07 1.552-.209a7.18 7.18 0 0 0 1.14-.467l.855-.465c.245-.139.482-.209.712-.209.31 0 .54.115.69.346l1.065 1.35c-.41.479-.87.883-1.38 1.207s-1.042.584-1.597.779-1.12.332-1.695.414a11.82 11.82 0 0 1-1.672.119c-1.07 0-2.065-.178-2.985-.533a6.68 6.68 0 0 1-2.4-1.574c-.68-.695-1.215-1.555-1.605-2.58s-.585-2.213-.585-3.563c0-1.051.17-2.037.51-2.963s.827-1.73 1.462-2.414 1.41-1.229 2.325-1.629 1.947-.6 3.097-.6c.97 0 1.865.156 2.685.465s1.525.764 2.115 1.357 1.052 1.326 1.387 2.191.503 1.852.503 2.961c0 .561-.06.938-.18 1.133s-.35.293-.69.293h-9.524zm7.064-2.234c0-.48-.067-.934-.203-1.357s-.337-.799-.607-1.119a2.84 2.84 0 0 0-1.027-.756c-.416-.186-.898-.277-1.448-.277-1.07 0-1.913.305-2.527.914s-1.008 1.475-1.178 2.596h6.99z"/><use xlink:href="#n"/><path d="M770.717 294.956c-1.34 0-2.368-.379-3.083-1.133s-1.072-1.797-1.072-3.127V282.1h-1.575c-.2 0-.37-.064-.51-.195s-.21-.324-.21-.584v-1.471l2.475-.404.78-4.201c.05-.199.145-.355.285-.465s.32-.164.54-.164h1.92v4.844h4.11v2.641h-4.11v8.34c0 .48.118.855.353 1.125s.558.404.968.404c.23 0 .422-.027.578-.082s.29-.113.405-.172l.308-.174c.09-.055.18-.082.27-.082.11 0 .2.027.27.082a1.35 1.35 0 0 1 .225.248l1.11 1.801c-.54.449-1.16.789-1.86 1.02s-1.427.345-2.177.345z"/><use xlink:href="#o"/><use xlink:href="#p"/><use xlink:href="#n" x="54.09"/><use xlink:href="#J" x="-723.323" y="-558.764"/><path d="M837.392 281.425c.63-.709 1.345-1.285 2.145-1.725s1.74-.66 2.82-.66c.84 0 1.607.176 2.302.525s1.295.857 1.8 1.521.895 1.486 1.17 2.461.413 2.092.413 3.352c0 1.15-.155 2.217-.465 3.195s-.752 1.83-1.328 2.551a6.13 6.13 0 0 1-2.085 1.688c-.815.405-1.728.607-2.737.607-.86 0-1.595-.133-2.205-.398a5.35 5.35 0 0 1-1.635-1.102v6.301h-3.705v-20.416h2.265c.48 0 .795.225.945.676l.3 1.424zm.195 9.301c.42.51.877.869 1.373 1.08a4.1 4.1 0 0 0 1.612.314c.56 0 1.065-.105 1.515-.314s.833-.529 1.147-.961.557-.973.728-1.627.255-1.428.255-2.318c0-.898-.073-1.662-.218-2.287s-.352-1.133-.622-1.521-.598-.676-.983-.855-.822-.27-1.313-.27c-.77 0-1.425.162-1.965.486s-1.05.783-1.53 1.373v6.9zm16.184-3.241c.06.791.2 1.473.42 2.047s.51 1.051.87 1.426.787.654 1.282.84 1.042.277 1.643.277 1.118-.07 1.552-.209a7.18 7.18 0 0 0 1.14-.467l.855-.465c.245-.139.482-.209.712-.209.31 0 .54.115.69.346l1.065 1.35c-.41.479-.87.883-1.38 1.207s-1.042.584-1.597.779-1.12.332-1.695.414a11.82 11.82 0 0 1-1.672.119c-1.07 0-2.065-.178-2.985-.533a6.68 6.68 0 0 1-2.4-1.574c-.68-.695-1.215-1.555-1.605-2.58s-.585-2.213-.585-3.563c0-1.051.17-2.037.51-2.963s.827-1.73 1.462-2.414 1.41-1.229 2.325-1.629 1.947-.6 3.097-.6c.97 0 1.865.156 2.685.465s1.525.764 2.115 1.357 1.052 1.326 1.387 2.191.503 1.852.503 2.961c0 .561-.06.938-.18 1.133s-.35.293-.69.293h-9.524zm7.065-2.234c0-.48-.067-.934-.203-1.357s-.337-.799-.607-1.119a2.84 2.84 0 0 0-1.027-.756c-.416-.186-.898-.277-1.448-.277-1.07 0-1.913.305-2.527.914s-1.008 1.475-1.178 2.596h6.99z"/><use xlink:href="#o" x="90.194"/><path d="M887.476 282.325c-.1.16-.205.273-.315.338s-.25.098-.42.098c-.18 0-.373-.051-.577-.15l-.713-.338c-.27-.125-.577-.236-.922-.338s-.752-.148-1.223-.148c-.73 0-1.302.154-1.717.465s-.623.715-.623 1.215c0 .33.107.607.323.832s.5.422.855.592a8.52 8.52 0 0 0 1.208.459l1.372.441 1.373.547c.45.205.853.467 1.208.781a3.59 3.59 0 0 1 .855 1.133c.215.439.323.969.323 1.59 0 .74-.133 1.422-.397 2.047a4.43 4.43 0 0 1-1.178 1.621c-.52.455-1.163.809-1.927 1.064s-1.648.383-2.647.383a8.47 8.47 0 0 1-1.553-.143 9.38 9.38 0 0 1-1.455-.398c-.465-.17-.895-.369-1.29-.6s-.742-.48-1.042-.75l.855-1.41c.11-.17.24-.301.39-.391s.34-.135.57-.135.448.066.653.195l.712.42a6.23 6.23 0 0 0 .953.42c.365.131.827.195 1.387.195.44 0 .817-.053 1.133-.158s.575-.242.78-.412.355-.367.45-.592.142-.457.142-.697c0-.361-.107-.656-.322-.885s-.5-.432-.855-.602a8.26 8.26 0 0 0-1.215-.457l-1.395-.441a12.91 12.91 0 0 1-1.395-.563c-.455-.215-.86-.488-1.215-.818a3.69 3.69 0 0 1-.855-1.215c-.215-.48-.322-1.061-.322-1.74 0-.631.125-1.23.375-1.801a4.21 4.21 0 0 1 1.103-1.492c.486-.426 1.09-.764 1.815-1.02s1.563-.383 2.513-.383c1.06 0 2.025.176 2.895.525s1.595.811 2.175 1.381l-.845 1.335zm10.605-3.24c1.14 0 2.177.186 3.112.555s1.735.896 2.4 1.576 1.178 1.51 1.538 2.49.54 2.074.54 3.285c0 1.219-.18 2.318-.54 3.299s-.873 1.814-1.538 2.506-1.465 1.219-2.4 1.59-1.973.555-3.112.555c-1.15 0-2.195-.186-3.135-.555s-1.743-.9-2.407-1.59-1.18-1.525-1.545-2.506-.548-2.08-.548-3.299c0-1.211.183-2.307.548-3.285s.879-1.811 1.545-2.49a6.84 6.84 0 0 1 2.407-1.576c.94-.371 1.985-.555 3.135-.555zm0 13.006c1.28 0 2.228-.43 2.842-1.291s.922-2.119.922-3.779-.307-2.926-.922-3.795-1.563-1.305-2.842-1.305c-1.3 0-2.263.438-2.888 1.313s-.938 2.137-.938 3.787.313 2.908.938 3.771 1.588 1.299 2.888 1.299z"/><use xlink:href="#n" x="159.629"/><use xlink:href="#p" x="137.684"/><use xlink:href="#q"/><path d="M956.311 285.31c0 2.061.25 4.086.75 6.076a24.71 24.71 0 0 0 2.146 5.609c.1.199.157.377.172.533s.003.289-.037.404-.103.215-.188.301a1.55 1.55 0 0 1-.277.217l-1.65 1.006c-.74-1.141-1.37-2.285-1.89-3.436s-.945-2.311-1.275-3.48-.572-2.355-.728-3.555a28.5 28.5 0 0 1-.232-3.676 28.83 28.83 0 0 1 .232-3.682 24.6 24.6 0 0 1 .728-3.563c.331-1.17.755-2.328 1.275-3.473s1.149-2.287 1.89-3.428l1.65.99c.1.061.192.133.277.217s.147.186.188.301.053.25.037.404-.072.338-.172.549c-.931 1.74-1.646 3.607-2.146 5.602a24.96 24.96 0 0 0-.75 6.084z"/><use xlink:href="#q" x="20.88"/><use xlink:href="#r"/><path d="M994.485 272.425v22.291h-3.705v-22.291h3.705zm4.786 22.291v-12.6l-1.335-.211c-.29-.061-.522-.162-.697-.307s-.263-.354-.263-.623v-1.516h2.295v-1.139c0-.881.132-1.67.397-2.371a4.92 4.92 0 0 1 1.14-1.785c.495-.49 1.098-.865 1.808-1.125s1.51-.391 2.4-.391c.71 0 1.37.096 1.979.285l-.075 1.861c-.01.139-.05.252-.119.338a.67.67 0 0 1-.278.193 1.45 1.45 0 0 1-.397.09c-.149.016-.31.023-.479.023-.44 0-.833.047-1.178.143s-.638.26-.877.494-.423.545-.548.932-.188.861-.188 1.432v1.02h4.005v2.641h-3.885v12.615h-3.705zm8.954 3.674a.69.69 0 0 1-.27-.555.57.57 0 0 1 .082-.27 1.25 1.25 0 0 1 .203-.27l.405-.443c.159-.174.319-.375.479-.6a5.85 5.85 0 0 0 .442-.734 3.81 3.81 0 0 0 .308-.848c-.32 0-.61-.059-.87-.174a1.97 1.97 0 0 1-.667-.473c-.185-.202-.33-.434-.436-.703s-.157-.566-.157-.887a2 2 0 0 1 .157-.787c.105-.244.253-.459.442-.645s.42-.33.69-.436.564-.156.885-.156c.38 0 .713.066.998.201s.52.32.705.555a2.53 2.53 0 0 1 .42.811c.095.305.143.629.143.969 0 .479-.073.984-.218 1.514a7.75 7.75 0 0 1-.638 1.59 9.12 9.12 0 0 1-1.043 1.545 9.51 9.51 0 0 1-1.417 1.381l-.643-.585zm17.879-16.965c.63-.709 1.345-1.285 2.146-1.725s1.739-.66 2.819-.66c.84 0 1.607.176 2.303.525s1.295.857 1.8 1.521.896 1.486 1.17 2.461.413 2.092.413 3.352c0 1.15-.155 2.217-.465 3.195s-.753 1.83-1.328 2.551-1.27 1.283-2.085 1.688-1.728.607-2.737.607c-.86 0-1.595-.133-2.205-.398a5.35 5.35 0 0 1-1.635-1.102v6.301h-3.705v-20.416h2.265c.48 0 .795.225.945.676l.299 1.424zm.196 9.301c.42.51.877.869 1.372 1.08a4.1 4.1 0 0 0 1.612.314c.561 0 1.065-.105 1.516-.314a2.96 2.96 0 0 0 1.147-.961c.314-.43.558-.973.728-1.627s.255-1.428.255-2.318c0-.898-.072-1.662-.218-2.287s-.353-1.133-.622-1.521-.598-.676-.982-.855-.823-.27-1.313-.27c-.771 0-1.425.162-1.965.486s-1.051.783-1.53 1.373v6.9z"/><use xlink:href="#r" x="64.919"/><path d="M1059.149 281.995c.479-.92 1.05-1.643 1.71-2.168s1.439-.787 2.34-.787c.71 0 1.28.156 1.71.465l-.24 2.775c-.05.18-.122.307-.217.383a.61.61 0 0 1-.383.111c-.15 0-.373-.023-.668-.074s-.582-.074-.862-.074c-.41 0-.775.059-1.095.18s-.607.293-.862.518a3.59 3.59 0 0 0-.676.816c-.194.32-.377.686-.547 1.096v9.48h-3.705v-15.391h2.175c.38 0 .646.068.795.203s.25.377.3.727l.225 1.74z"/><use xlink:href="#q" x="126.148"/><path d="M1086.794 279.085c1.141 0 2.178.186 3.113.555a6.83 6.83 0 0 1 2.399 1.576c.665.68 1.178 1.51 1.538 2.49s.54 2.074.54 3.285c0 1.219-.181 2.318-.54 3.299s-.873 1.814-1.538 2.506a6.75 6.75 0 0 1-2.399 1.59c-.936.369-1.973.555-3.113.555-1.149 0-2.194-.186-3.135-.555s-1.742-.9-2.407-1.59-1.181-1.525-1.545-2.506-.548-2.08-.548-3.299c0-1.211.183-2.307.548-3.285s.88-1.811 1.545-2.49 1.467-1.205 2.407-1.576 1.986-.555 3.135-.555zm0 13.006c1.28 0 2.228-.43 2.843-1.291s.923-2.119.923-3.779-.308-2.926-.923-3.795-1.563-1.305-2.843-1.305c-1.3 0-2.263.438-2.887 1.313s-.938 2.137-.938 3.787.312 2.908.938 3.771 1.587 1.299 2.887 1.299zm13.89-10.875c.31-.311.638-.598.982-.863a6.2 6.2 0 0 1 1.095-.674c.386-.186.798-.33 1.238-.436a6.19 6.19 0 0 1 1.439-.158c.84 0 1.585.143 2.235.428s1.192.686 1.627 1.199.766 1.131.99 1.846.338 1.502.338 2.363v9.795h-3.705v-9.795c0-.939-.215-1.668-.646-2.184s-1.085-.771-1.965-.771a3.87 3.87 0 0 0-1.8.434c-.561.291-1.09.686-1.59 1.186v11.131h-3.705v-15.391h2.265c.48 0 .795.225.945.676l.257 1.214zm13.094.254c1.771-1.619 3.9-2.43 6.391-2.43.899 0 1.704.148 2.415.443s1.31.705 1.8 1.229.862 1.154 1.117 1.883.383 1.531.383 2.4v9.721h-1.681c-.35 0-.62-.053-.81-.158s-.34-.316-.45-.637l-.33-1.111c-.39.352-.77.658-1.14.924a6.77 6.77 0 0 1-1.155.666c-.399.182-.827.318-1.282.414s-.958.143-1.508.143c-.649 0-1.25-.088-1.8-.264s-1.025-.438-1.425-.787-.71-.785-.93-1.305-.33-1.125-.33-1.814c0-.391.064-.777.194-1.164s.343-.752.638-1.102.678-.68 1.147-.99 1.048-.58 1.732-.811 1.482-.416 2.393-.563 1.95-.232 3.12-.262v-.9c0-1.029-.22-1.793-.66-2.287s-1.075-.742-1.905-.742c-.6 0-1.097.07-1.492.209s-.742.299-1.042.473l-.817.473c-.246.141-.518.211-.818.211-.26 0-.479-.068-.659-.203s-.325-.293-.436-.473l-.66-1.186zm8.491 6.676c-1.07.051-1.97.143-2.7.277s-1.314.307-1.755.518-.755.455-.945.734a1.61 1.61 0 0 0-.284.916c0 .65.192 1.115.577 1.395s.888.42 1.508.42c.76 0 1.417-.137 1.972-.412s1.098-.693 1.628-1.252v-2.596z"/><use xlink:href="#q" x="188.713"/><path d="M1143.974 285.31a25.17 25.17 0 0 0-.742-6.082c-.495-1.994-1.208-3.861-2.138-5.602-.11-.211-.173-.393-.188-.549s-.003-.289.037-.404.103-.215.188-.301.183-.156.293-.217l1.649-.99c.74 1.141 1.37 2.283 1.891 3.428a24.43 24.43 0 0 1 1.274 3.473 24.16 24.16 0 0 1 .721 3.563c.149 1.205.225 2.432.225 3.682a29.61 29.61 0 0 1-.225 3.676 24.11 24.11 0 0 1-.721 3.555c-.33 1.17-.755 2.33-1.274 3.48s-1.15 2.295-1.891 3.436l-1.649-1.006c-.11-.061-.208-.133-.293-.217s-.147-.186-.188-.301-.053-.25-.037-.404.077-.334.188-.533c.93-1.75 1.643-3.619 2.138-5.609s.742-4.018.742-6.078z"/></g><path d="M689.664 88.823h660.393m-660.393 80h660.393" class="B C D E F H"/><path d="M5.565 631.589h665.241v325.979H5.565z" class="B C D E F"/><g class="G"><path d="M326.397 687.004h-3.12c-.35 0-.635-.088-.855-.263a1.64 1.64 0 0 1-.495-.652l-1.62-4.425h-8.985l-1.62 4.425c-.081.23-.235.44-.465.63s-.515.285-.855.285h-3.15l8.535-21.69h4.11l8.52 21.69zm-7.125-8.191l-2.64-7.215-.405-1.14-.42-1.425-.405 1.433-.405 1.162-2.625 7.185h6.9z"/><use xlink:href="#Y" x="-478.713" y="549.028"/><use xlink:href="#C" x="-1390.883"/><use xlink:href="#s"/></g><path d="M6.851 714.847h660.392m-660.392 80h660.392" class="B C D E F H"/><g class="G"><use xlink:href="#E" x="-1387.178"/><use xlink:href="#O" x="-1573.58"/><use xlink:href="#G" x="-1387.178"/><use xlink:href="#t"/><use xlink:href="#E" x="-1323.548"/><use xlink:href="#I" x="-1387.178"/><use xlink:href="#J" x="-1387.178"/><path d="M173.537 840.19c.63-.71 1.345-1.285 2.145-1.725s1.74-.66 2.82-.66c.84 0 1.607.175 2.302.524s1.295.858 1.8 1.522.895 1.485 1.17 2.46.413 2.093.413 3.353c0 1.15-.155 2.216-.465 3.195s-.752 1.83-1.328 2.55-1.27 1.283-2.085 1.688-1.728.607-2.737.607c-.86 0-1.595-.132-2.205-.397a5.37 5.37 0 0 1-1.635-1.103v6.301h-3.705V838.09h2.265c.48 0 .795.225.945.675l.3 1.425zm.195 9.3c.42.51.877.87 1.373 1.08s1.032.315 1.612.315a3.54 3.54 0 0 0 1.515-.315 2.95 2.95 0 0 0 1.147-.96c.315-.43.557-.973.728-1.627s.255-1.428.255-2.318c0-.899-.073-1.662-.218-2.287s-.352-1.133-.622-1.522-.598-.675-.983-.855-.822-.27-1.313-.27c-.77 0-1.425.163-1.965.487s-1.05.783-1.53 1.373v6.899z"/><use xlink:href="#K" x="-1387.178"/><use xlink:href="#L" x="-1387.178"/><use xlink:href="#M" x="-1387.177"/><path d="M234.227 837.851c1.14 0 2.177.185 3.112.555s1.735.896 2.4 1.575 1.178 1.51 1.538 2.49.54 2.075.54 3.285c0 1.22-.18 2.319-.54 3.3s-.873 1.814-1.538 2.505-1.465 1.22-2.4 1.59-1.973.555-3.112.555c-1.15 0-2.195-.185-3.135-.555s-1.743-.9-2.407-1.59-1.18-1.525-1.545-2.505-.548-2.08-.548-3.3c0-1.21.183-2.306.548-3.285s.879-1.811 1.545-2.49 1.467-1.205 2.407-1.575 1.984-.555 3.135-.555zm0 13.004c1.28 0 2.228-.43 2.842-1.29s.922-2.12.922-3.78-.307-2.925-.922-3.795-1.563-1.305-2.842-1.305c-1.3 0-2.263.438-2.888 1.313s-.938 2.138-.938 3.787.313 2.908.938 3.772 1.587 1.298 2.888 1.298z"/><use xlink:href="#N" x="-1387.178"/><use xlink:href="#F" x="-1200.775"/><use xlink:href="#M" x="-1324.613"/><use xlink:href="#P" x="-1387.178"/><use xlink:href="#M" x="-1303.733"/><use xlink:href="#K" x="-1263.384"/><use xlink:href="#Q" x="-1387.178"/><use xlink:href="#R" x="-1387.177"/><use xlink:href="#S" x="-1387.178"/><use xlink:href="#L" x="-1540.222" y="62.741"/><use xlink:href="#K" x="-1513.447" y="62.741"/><use xlink:href="#T" x="-1387.178"/><use xlink:href="#s" x="-264.669" y="229.218"/><use xlink:href="#L" x="-1482.022" y="62.741"/><use xlink:href="#L" x="-1470.833" y="62.741"/><use xlink:href="#K" x="-1444.058" y="62.741"/><use xlink:href="#L" x="-1444.058" y="62.741"/><use xlink:href="#P" x="-1519.762" y="62.741"/><use xlink:href="#M" x="-1436.318" y="62.741"/><use xlink:href="#K" x="-1395.969" y="62.741"/><use xlink:href="#Q" x="-1519.763" y="62.742"/><use xlink:href="#R" x="-1519.762" y="62.742"/><use xlink:href="#U" x="-1387.177"/><use xlink:href="#V" x="-1387.178"/><use xlink:href="#u"/><use xlink:href="#Q" x="-1464.249" y="62.742"/><use xlink:href="#D" x="-1489.295" y="229.218"/><path d="M274.5 916.222v-15.39h2.265c.48 0 .795.225.945.675l.24 1.14c.27-.3.553-.575.848-.825a5.5 5.5 0 0 1 .945-.645c.335-.18.695-.322 1.08-.428s.808-.157 1.268-.157c.97 0 1.768.263 2.393.787s1.092 1.223 1.402 2.093c.24-.51.54-.947.9-1.313s.755-.662 1.185-.893.888-.399 1.373-.51.973-.165 1.462-.165c.85 0 1.605.13 2.265.39s1.215.641 1.665 1.141.792 1.109 1.027 1.83.353 1.545.353 2.475v9.795h-3.705v-9.795c0-.98-.215-1.718-.645-2.213s-1.06-.742-1.89-.742c-.38 0-.733.065-1.058.195s-.61.317-.855.563-.438.553-.578.922-.21.795-.21 1.275v9.795h-3.72v-9.795c0-1.03-.208-1.78-.623-2.25s-1.022-.705-1.823-.705a3 3 0 0 0-1.507.397c-.465.264-.897.628-1.297 1.088v11.265H274.5z"/><use xlink:href="#K" x="-1274.62" y="62.741"/><use xlink:href="#C" x="-1420.025" y="229.218"/><use xlink:href="#L" x="-1263.611" y="62.741"/><use xlink:href="#B" x="-1381.176" y="229.218"/><use xlink:href="#M" x="-1246.765" y="62.741"/><use xlink:href="#S" x="-1365.264" y="62.741"/></g><path d="M699.154 631.589h665.242v510.852H699.154z" class="B C D E F"/><g class="G"><path d="M985.838 681.889c.22 0 .415.085.585.255l1.59 1.726c-.88 1.09-1.962 1.925-3.248 2.505s-2.827.87-4.627.87c-1.61 0-3.058-.275-4.342-.825s-2.383-1.314-3.292-2.295-1.608-2.15-2.093-3.51-.728-2.845-.728-4.455c0-1.63.26-3.123.78-4.478s1.252-2.522 2.197-3.503a9.96 9.96 0 0 1 3.383-2.287c1.31-.545 2.76-.817 4.35-.817 1.58 0 2.982.26 4.207.779s2.268 1.2 3.128 2.04l-1.35 1.875a1.21 1.21 0 0 1-.308.315c-.125.089-.298.135-.518.135-.15 0-.305-.042-.465-.127s-.335-.19-.525-.315l-.66-.412c-.25-.15-.54-.288-.87-.413a7.1 7.1 0 0 0-1.147-.314c-.435-.085-.938-.128-1.507-.128-.97 0-1.858.173-2.663.518s-1.498.845-2.078 1.5-1.03 1.455-1.35 2.4-.48 2.022-.48 3.232c0 1.22.173 2.305.518 3.255s.813 1.75 1.403 2.399 1.285 1.147 2.085 1.493 1.66.518 2.58.518a11.23 11.23 0 0 0 1.492-.09 6.41 6.41 0 0 0 1.23-.285 5.46 5.46 0 0 0 1.065-.503c.335-.205.667-.457.998-.758a1.42 1.42 0 0 1 .315-.217c.11-.055.225-.083.345-.083z"/><use xlink:href="#D" x="-756.671"/><use xlink:href="#Q" x="-706.936" y="-166.476"/><use xlink:href="#K" x="-559.667" y="-166.477"/><use xlink:href="#T" x="-433.397" y="-229.218"/><path d="M1060.583 687.004h-3.705v-12.615h-7.14v8.34c0 .48.118.855.353 1.125s.558.405.968.405c.23 0 .422-.027.578-.082s.29-.113.405-.173l.308-.173c.09-.055.18-.082.27-.082.11 0 .2.027.27.082s.145.138.225.248l1.11 1.8a5.61 5.61 0 0 1-1.86 1.02c-.7.23-1.425.346-2.175.346-1.34 0-2.368-.378-3.083-1.133s-1.072-1.797-1.072-3.127v-8.596h-1.575a.72.72 0 0 1-.51-.194c-.14-.13-.21-.325-.21-.585v-1.471l2.475-.42.78-4.185c.05-.2.145-.355.285-.465s.32-.165.54-.165h1.92v4.845h10.845v15.255zm.645-19.935a2.16 2.16 0 0 1-.195.907c-.13.285-.303.532-.518.742a2.45 2.45 0 0 1-.765.503c-.295.125-.607.188-.938.188-.32 0-.62-.063-.9-.188a2.43 2.43 0 0 1-.735-.503c-.21-.21-.378-.457-.503-.742s-.188-.588-.188-.907c0-.33.063-.638.188-.923a2.5 2.5 0 0 1 .503-.75c.21-.215.455-.385.735-.51s.58-.188.9-.188a2.38 2.38 0 0 1 .938.188c.295.125.55.295.765.51s.387.465.518.75a2.2 2.2 0 0 1 .195.923zm17.009 4.545l-6.105 15.39h-3.36l-6.105-15.39h3.06c.28 0 .513.064.698.194s.308.295.367.495l2.97 8.22.42 1.41.315 1.38.33-1.38.435-1.41 3.03-8.22c.07-.2.195-.364.375-.495s.395-.194.645-.194h2.925z"/><use xlink:href="#D" x="-666.837"/></g><path d="M700.439 714.847h660.393m-660.393 80h660.393" class="B C D E F H"/><g class="G"><use xlink:href="#J" x="-799.579" y="-0.001"/><use xlink:href="#J" x="-785.584" y="-0.001"/><use xlink:href="#H" x="-721.61" y="-0.001"/><use xlink:href="#N" x="-852.588" y="-0.001"/><path d="M800.511 833.604a2.11 2.11 0 0 1-.195.9c-.13.279-.302.524-.518.734s-.467.378-.757.503-.6.188-.93.188c-.32 0-.622-.063-.907-.188s-.533-.293-.743-.503-.377-.455-.502-.734a2.18 2.18 0 0 1-.188-.9c0-.33.063-.64.188-.93a2.38 2.38 0 0 1 .502-.75c.21-.21.458-.378.743-.503s.587-.188.907-.188c.33 0 .64.063.93.188s.542.293.757.503a2.42 2.42 0 0 1 .518.75c.13.29.195.6.195.93zM800 838.09v15.39h-3.72v-15.39H800zm8.911 15.63c-1.34 0-2.368-.378-3.083-1.133s-1.072-1.797-1.072-3.127v-8.596h-1.575a.72.72 0 0 1-.51-.194c-.14-.13-.21-.325-.21-.585v-1.471l2.475-.404.78-4.2c.05-.2.145-.355.285-.465s.32-.165.54-.165h1.92v4.845h4.11v2.64h-4.11v8.34c0 .48.118.855.353 1.125s.558.405.968.405c.23 0 .422-.027.578-.082s.29-.113.405-.173l.308-.173c.09-.055.18-.082.27-.082.11 0 .2.027.27.082s.145.138.225.248l1.11 1.8a5.61 5.61 0 0 1-1.86 1.02c-.702.229-1.427.345-2.177.345z"/><use xlink:href="#J" x="-728.27" y="-0.001"/><use xlink:href="#J" x="-714.275" y="-0.001"/><use xlink:href="#P" x="-834.229" y="-0.001"/><use xlink:href="#M" x="-750.784" y="-0.001"/><use xlink:href="#K" x="-710.435" y="-0.001"/><use xlink:href="#Q" x="-834.229" y="-0.001"/><use xlink:href="#R" x="-834.228" y="-0.001"/><use xlink:href="#S" x="-834.229" y="-0.001"/><use xlink:href="#E" x="-693.589" y="62.741"/><use xlink:href="#v"/><use xlink:href="#G" x="-693.589" y="62.741"/><use xlink:href="#u" x="557.451" y="-0.001"/><use xlink:href="#E" x="-629.959" y="62.741"/><use xlink:href="#B" x="-886.199" y="229.217"/><use xlink:href="#J" x="-693.589" y="62.74"/><path d="M867.125 902.931c.63-.71 1.345-1.285 2.145-1.725s1.74-.66 2.82-.66c.84 0 1.607.175 2.302.524s1.295.858 1.8 1.522.895 1.485 1.17 2.46.413 2.093.413 3.353c0 1.15-.155 2.216-.465 3.195s-.752 1.83-1.328 2.55-1.27 1.283-2.085 1.688-1.728.607-2.737.607c-.86 0-1.595-.132-2.205-.397a5.37 5.37 0 0 1-1.635-1.103v6.301h-3.705v-20.415h2.265c.48 0 .795.225.945.675l.3 1.425zm.196 9.299c.42.51.877.87 1.373 1.08s1.032.315 1.612.315a3.54 3.54 0 0 0 1.515-.315 2.95 2.95 0 0 0 1.147-.96c.315-.43.557-.973.728-1.627s.255-1.428.255-2.318c0-.899-.073-1.662-.218-2.287s-.352-1.133-.622-1.522-.598-.675-.983-.855-.822-.27-1.313-.27c-.77 0-1.425.163-1.965.487s-1.05.783-1.53 1.373v6.899z"/><use xlink:href="#K" x="-693.589" y="62.74"/><use xlink:href="#L" x="-693.589" y="62.74"/><use xlink:href="#M" x="-693.589" y="62.74"/><use xlink:href="#B" x="-797.58" y="229.217"/><use xlink:href="#N" x="-693.589" y="62.741"/><use xlink:href="#v" x="186.403"/><use xlink:href="#M" x="-631.024" y="62.74"/><use xlink:href="#P" x="-693.589" y="62.74"/><use xlink:href="#M" x="-610.144" y="62.74"/><use xlink:href="#K" x="-569.795" y="62.74"/><use xlink:href="#Q" x="-693.589" y="62.741"/><use xlink:href="#R" x="-693.589" y="62.741"/><use xlink:href="#S" x="-693.589" y="62.74"/><use xlink:href="#L" x="-846.633" y="125.482"/><use xlink:href="#K" x="-819.858" y="125.482"/><use xlink:href="#T" x="-693.589" y="62.741"/><use xlink:href="#D" x="-961.963" y="291.959"/><use xlink:href="#L" x="-788.433" y="125.482"/><use xlink:href="#L" x="-777.244" y="125.482"/><use xlink:href="#K" x="-750.469" y="125.482"/><use xlink:href="#L" x="-750.469" y="125.482"/><use xlink:href="#w"/><use xlink:href="#M" x="-742.729" y="125.482"/><use xlink:href="#K" x="-702.38" y="125.482"/><use xlink:href="#Q" x="-826.174" y="125.483"/><use xlink:href="#R" x="-826.173" y="125.483"/><use xlink:href="#U" x="-693.588" y="62.742"/><use xlink:href="#V" x="-693.589" y="62.741"/><use xlink:href="#W" x="-693.589" y="62.741"/><use xlink:href="#Q" x="-770.66" y="125.483"/><use xlink:href="#D" x="-795.706" y="291.959"/><use xlink:href="#E" x="-469.133" y="125.483"/><use xlink:href="#K" x="-581.032" y="125.482"/><use xlink:href="#C" x="-726.437" y="291.959"/><use xlink:href="#L" x="-570.022" y="125.482"/><use xlink:href="#B" x="-687.587" y="291.959"/><use xlink:href="#M" x="-553.176" y="125.482"/><path d="M1062.843 969.558a25.16 25.16 0 0 0-.743-6.082c-.495-1.995-1.208-3.862-2.137-5.603-.11-.21-.173-.393-.188-.548s-.003-.29.037-.405a.79.79 0 0 1 .188-.3c.085-.085.183-.157.293-.217l1.65-.99c.74 1.14 1.37 2.282 1.89 3.428s.945 2.302 1.275 3.472.57 2.358.72 3.563.225 2.433.225 3.683-.075 2.476-.225 3.675-.39 2.386-.72 3.556-.755 2.33-1.275 3.479-1.15 2.295-1.89 3.436l-1.65-1.005c-.11-.061-.208-.133-.293-.218s-.147-.186-.188-.3a.95.95 0 0 1-.037-.405 1.4 1.4 0 0 1 .188-.532c.93-1.75 1.643-3.62 2.137-5.61s.743-4.017.743-6.077z"/><use xlink:href="#K" x="-830.614" y="185.482"/><use xlink:href="#N" x="-872.178" y="185.483"/><use xlink:href="#C" x="-959.159" y="351.959"/><use xlink:href="#L" x="-802.743" y="185.482"/><use xlink:href="#F" x="-663.83" y="185.483"/><use xlink:href="#N" x="-818.088" y="185.483"/><use xlink:href="#J" x="-712.549" y="185.483"/><path d="M848.166 1025.673c.63-.71 1.345-1.285 2.145-1.725s1.74-.66 2.82-.66c.84 0 1.607.175 2.302.524s1.295.858 1.8 1.522.895 1.485 1.17 2.46.413 2.093.413 3.353c0 1.15-.155 2.216-.465 3.195s-.752 1.83-1.328 2.55-1.27 1.283-2.085 1.688-1.728.607-2.737.607c-.86 0-1.595-.132-2.205-.397a5.37 5.37 0 0 1-1.635-1.103v6.301h-3.705v-20.415h2.265c.48 0 .795.225.945.675l.3 1.425zm.195 9.3c.42.51.877.87 1.373 1.08s1.032.315 1.612.315a3.54 3.54 0 0 0 1.515-.315 2.95 2.95 0 0 0 1.147-.96c.315-.43.557-.973.728-1.627s.255-1.428.255-2.318c0-.899-.073-1.662-.218-2.287s-.352-1.133-.622-1.522-.598-.675-.983-.855-.822-.27-1.313-.27c-.77 0-1.425.163-1.965.487s-1.05.783-1.53 1.373v6.899z"/><use xlink:href="#K" x="-712.55" y="185.482"/><use xlink:href="#L" x="-712.55" y="185.482"/><use xlink:href="#M" x="-712.549" y="185.482"/><use xlink:href="#B" x="-816.54" y="351.959"/><use xlink:href="#N" x="-712.549" y="185.483"/><use xlink:href="#F" x="-526.146" y="185.483"/><use xlink:href="#M" x="-649.985" y="185.482"/><use xlink:href="#w" x="113.624" y="60"/><use xlink:href="#M" x="-629.104" y="185.482"/><use xlink:href="#K" x="-588.756" y="185.482"/><use xlink:href="#Q" x="-712.55" y="185.483"/><use xlink:href="#R" x="-712.549" y="185.483"/><use xlink:href="#U" x="-579.964" y="122.742"/><path d="M1036.878 1025.673c.63-.71 1.345-1.285 2.145-1.725s1.74-.66 2.82-.66c.84 0 1.607.175 2.302.524s1.295.858 1.8 1.522.895 1.485 1.17 2.46.413 2.093.413 3.353c0 1.15-.155 2.216-.465 3.195s-.752 1.83-1.328 2.55-1.27 1.283-2.085 1.688-1.728.607-2.737.607c-.86 0-1.595-.132-2.205-.397a5.37 5.37 0 0 1-1.635-1.103v6.301h-3.705v-20.415h2.265c.48 0 .795.225.945.675l.3 1.425zm.196 9.3c.42.51.877.87 1.373 1.08s1.032.315 1.612.315a3.54 3.54 0 0 0 1.515-.315 2.95 2.95 0 0 0 1.147-.96c.315-.43.557-.973.728-1.627s.255-1.428.255-2.318c0-.899-.073-1.662-.218-2.287s-.352-1.133-.622-1.522-.598-.675-.983-.855-.822-.27-1.313-.27c-.77 0-1.425.163-1.965.487s-1.05.783-1.53 1.373v6.899z"/><use xlink:href="#K" x="-523.836" y="185.482"/><use xlink:href="#L" x="-523.837" y="185.482"/><use xlink:href="#M" x="-523.836" y="185.482"/><use xlink:href="#B" x="-627.827" y="351.959"/><use xlink:href="#N" x="-523.836" y="185.483"/><use xlink:href="#O" x="-523.836" y="185.483"/><use xlink:href="#M" x="-461.271" y="185.482"/><path d="M1154.748 1029.558a25.16 25.16 0 0 0-.743-6.082c-.495-1.995-1.208-3.862-2.137-5.603-.11-.21-.173-.393-.188-.548s-.003-.29.037-.405a.79.79 0 0 1 .188-.3c.085-.085.183-.157.293-.217l1.65-.99c.74 1.14 1.37 2.282 1.89 3.428s.945 2.302 1.275 3.472.57 2.358.721 3.563a29.99 29.99 0 0 1 .225 3.683c0 1.25-.075 2.476-.225 3.675s-.391 2.386-.721 3.556-.755 2.33-1.275 3.479-1.15 2.295-1.89 3.436l-1.65-1.005c-.11-.061-.208-.133-.293-.218s-.147-.186-.188-.3a.95.95 0 0 1-.037-.405 1.4 1.4 0 0 1 .188-.532c.93-1.75 1.643-3.62 2.137-5.61a25.1 25.1 0 0 0 .743-6.077z"/><use xlink:href="#T" x="-720.364" y="185.482"/><use xlink:href="#F" x="-704.255" y="248.224"/><use xlink:href="#L" x="-816.949" y="248.223"/><path d="M797.841 1086.839v1.38c0 .44-.265.711-.795.811l-1.38.255c.21.53.315 1.11.315 1.74 0 .76-.153 1.447-.458 2.063s-.728 1.138-1.268 1.567-1.178.763-1.913.997-1.528.353-2.377.353c-.3 0-.59-.015-.87-.045l-.825-.12c-.48.29-.72.615-.72.976a.72.72 0 0 0 .427.683c.285.145.663.247 1.133.307a15.64 15.64 0 0 0 1.605.113l1.845.097c.63.051 1.245.138 1.845.263a5.39 5.39 0 0 1 1.605.593 3.14 3.14 0 0 1 1.132 1.103c.285.465.428 1.063.428 1.792 0 .681-.167 1.341-.502 1.98s-.82 1.21-1.455 1.71-1.415.902-2.34 1.207-1.978.458-3.158.458c-1.16 0-2.17-.112-3.03-.338s-1.575-.524-2.145-.899-.995-.808-1.275-1.298-.42-1-.42-1.53c0-.72.218-1.322.653-1.807s1.032-.873 1.792-1.163c-.41-.21-.735-.489-.975-.84s-.36-.81-.36-1.38a2.17 2.17 0 0 1 .127-.713c.084-.245.21-.487.375-.728s.372-.467.623-.683.545-.407.885-.577c-.78-.42-1.393-.979-1.837-1.68s-.667-1.521-.667-2.46c0-.76.152-1.448.458-2.063a4.6 4.6 0 0 1 1.275-1.575c.545-.436 1.19-.768 1.935-.998a8.26 8.26 0 0 1 2.438-.345c.66 0 1.28.067 1.86.203s1.11.332 1.59.592h4.424zm-3.69 15.556c0-.301-.09-.546-.27-.735s-.425-.338-.735-.442-.672-.183-1.087-.232l-1.32-.112-1.44-.068-1.448-.119c-.41.229-.742.5-.998.81a1.65 1.65 0 0 0-.382 1.08 1.49 1.49 0 0 0 .203.758c.135.234.35.437.645.607s.677.302 1.147.397 1.045.143 1.725.143c.69 0 1.285-.053 1.785-.158s.913-.25 1.238-.435.563-.405.712-.66a1.63 1.63 0 0 0 .225-.834zm-4.185-8.761c.46 0 .86-.063 1.2-.188s.623-.297.848-.518.395-.484.51-.795.172-.649.172-1.02c0-.76-.228-1.362-.683-1.808s-1.138-.668-2.047-.668-1.593.223-2.047.668-.683 1.048-.683 1.808a2.87 2.87 0 0 0 .172 1.005c.115.31.285.577.51.803a2.29 2.29 0 0 0 .855.524c.345.126.743.189 1.193.189z"/><use xlink:href="#F" x="-662.165" y="248.224"/><use xlink:href="#L" x="-774.86" y="248.223"/><use xlink:href="#J" x="-716.615" y="248.224"/><use xlink:href="#T" x="-623.405" y="185.482"/><use xlink:href="#B" x="-863.805" y="414.7"/><use xlink:href="#E" x="-565.206" y="248.224"/><use xlink:href="#x"/><use xlink:href="#Y" x="107.734" y="963.728"/><use xlink:href="#M" x="-670.325" y="248.223"/><path d="M959.794 1101.704h-3.705v-12.615h-7.14v8.34c0 .48.118.855.353 1.125s.558.405.968.405c.23 0 .422-.027.578-.082s.29-.113.405-.173l.308-.173c.09-.055.18-.082.27-.082.11 0 .2.027.27.082s.145.138.225.248l1.11 1.8a5.61 5.61 0 0 1-1.86 1.02c-.7.23-1.425.346-2.175.346-1.34 0-2.368-.378-3.083-1.133s-1.072-1.797-1.072-3.127v-8.596h-1.575a.72.72 0 0 1-.51-.194c-.14-.13-.21-.325-.21-.585v-1.471l2.475-.42.78-4.185c.05-.2.145-.355.285-.465s.32-.165.54-.165h1.92v4.845h10.845v15.255zm.645-19.934a2.16 2.16 0 0 1-.195.907c-.13.285-.303.532-.518.742a2.45 2.45 0 0 1-.765.503c-.295.125-.607.188-.938.188-.32 0-.62-.063-.9-.188a2.43 2.43 0 0 1-.735-.503c-.21-.21-.378-.457-.503-.742s-.188-.588-.188-.907c0-.33.063-.638.188-.923a2.5 2.5 0 0 1 .503-.75c.21-.215.455-.385.735-.51s.58-.188.9-.188a2.38 2.38 0 0 1 .938.188c.295.125.55.295.765.51s.387.465.518.75.195.592.195.923z"/><use xlink:href="#x" x="66.434"/><use xlink:href="#Q" x="-733.46" y="248.224"/><use xlink:href="#y"/><use xlink:href="#w" x="153.088" y="122.741"/><use xlink:href="#M" x="-589.641" y="248.223"/><use xlink:href="#y" x="36.9"/><use xlink:href="#Q" x="-673.086" y="248.224"/><use xlink:href="#R" x="-673.085" y="248.224"/><use xlink:href="#U" x="-540.5" y="185.483"/><use xlink:href="#Y" x="266.402" y="963.728"/><use xlink:href="#N" x="-542.077" y="248.224"/><use xlink:href="#J" x="-436.538" y="248.224"/><use xlink:href="#T" x="-343.328" y="185.482"/><use xlink:href="#B" x="-583.728" y="414.7"/><use xlink:href="#E" x="-285.129" y="248.224"/><use xlink:href="#x" x="280.077"/><use xlink:href="#Y" x="387.811" y="963.728"/><use xlink:href="#M" x="-390.247" y="248.223"/><path d="M1239.872 1101.704h-3.705v-12.615h-7.141v8.34c0 .48.117.855.353 1.125s.558.405.968.405c.229 0 .422-.027.577-.082s.29-.113.405-.173l.308-.173c.09-.055.18-.082.27-.082.11 0 .2.027.271.082a1.32 1.32 0 0 1 .225.248l1.11 1.8a5.61 5.61 0 0 1-1.86 1.02c-.7.23-1.425.346-2.175.346-1.34 0-2.367-.378-3.082-1.133s-1.073-1.797-1.073-3.127v-8.596h-1.574c-.2 0-.37-.064-.511-.194s-.21-.325-.21-.585v-1.471l2.476-.42.779-4.185c.05-.2.146-.355.285-.465s.32-.165.54-.165h1.92v4.845h10.846v15.255zm.645-19.934a2.16 2.16 0 0 1-.195.907c-.13.285-.303.532-.518.742a2.45 2.45 0 0 1-.765.503c-.295.125-.607.188-.938.188-.32 0-.62-.063-.9-.188a2.44 2.44 0 0 1-.734-.503c-.21-.21-.378-.457-.503-.742s-.188-.588-.188-.907c0-.33.063-.638.188-.923a2.5 2.5 0 0 1 .503-.75 2.37 2.37 0 0 1 .734-.51c.28-.125.58-.188.9-.188a2.38 2.38 0 0 1 .938.188c.295.125.55.295.765.51s.388.465.518.75.195.592.195.923zm6.839 6.434c.62-.65 1.308-1.167 2.063-1.553s1.617-.577 2.587-.577c.891 0 1.692.175 2.408.524s1.324.854 1.83 1.508.893 1.447 1.162 2.378.405 1.975.405 3.135c0 1.25-.155 2.385-.465 3.405s-.753 1.893-1.328 2.617a6.06 6.06 0 0 1-2.077 1.688c-.809.4-1.71.6-2.7.6-.479 0-.915-.047-1.305-.143a4.84 4.84 0 0 1-1.08-.397 4.33 4.33 0 0 1-.907-.622 7.75 7.75 0 0 1-.788-.817l-.165 1.035c-.06.26-.162.444-.308.555s-.343.165-.592.165h-2.445v-22.29h3.705v8.789zm0 9.51c.42.51.877.87 1.372 1.08s1.018.315 1.567.315c.57 0 1.083-.103 1.538-.308s.842-.525 1.162-.96.565-.99.735-1.665.255-1.482.255-2.423c0-1.689-.28-2.912-.84-3.667s-1.365-1.133-2.415-1.133c-.71 0-1.33.163-1.86.487s-1.035.783-1.515 1.373v6.901z"/><use xlink:href="#Q" x="-453.383" y="248.224"/><path d="M1270.98 1094.474c.061.791.2 1.473.42 2.048s.511 1.05.87 1.425a3.41 3.41 0 0 0 1.283.84 4.63 4.63 0 0 0 1.642.278c.601 0 1.118-.07 1.553-.21a7.29 7.29 0 0 0 1.141-.466l.854-.465c.245-.14.482-.21.713-.21.31 0 .54.115.689.346l1.065 1.35c-.41.479-.87.883-1.38 1.207a7.77 7.77 0 0 1-1.598.78c-.555.195-1.12.332-1.695.413a11.97 11.97 0 0 1-1.672.119c-1.07 0-2.065-.178-2.985-.532a6.67 6.67 0 0 1-2.4-1.575c-.68-.694-1.215-1.555-1.604-2.58s-.585-2.212-.585-3.563c0-1.05.17-2.037.51-2.962s.827-1.73 1.463-2.415 1.409-1.228 2.324-1.628 1.948-.6 3.098-.6c.97 0 1.865.155 2.686.465a5.88 5.88 0 0 1 2.114 1.357c.591.595 1.053 1.325 1.388 2.19s.503 1.853.503 2.962c0 .561-.061.938-.181 1.133s-.35.292-.689.292h-9.527zm7.066-2.235a4.45 4.45 0 0 0-.202-1.357c-.136-.425-.338-.798-.608-1.118s-.612-.572-1.027-.757-.897-.277-1.447-.277c-1.07 0-1.912.305-2.527.915s-1.008 1.475-1.178 2.595h6.989zm7.515.06a25.16 25.16 0 0 0-.742-6.082c-.495-1.995-1.208-3.862-2.138-5.603-.11-.21-.173-.393-.188-.548a.95.95 0 0 1 .037-.405.79.79 0 0 1 .188-.3c.085-.085.183-.157.293-.217l1.649-.99c.74 1.14 1.37 2.282 1.891 3.428a24.34 24.34 0 0 1 1.274 3.472c.33 1.17.57 2.358.721 3.563a29.99 29.99 0 0 1 .225 3.683c0 1.25-.075 2.476-.225 3.675s-.391 2.386-.721 3.556-.755 2.33-1.274 3.479-1.15 2.295-1.891 3.436l-1.649-1.005c-.11-.061-.208-.133-.293-.218s-.147-.186-.188-.3a.92.92 0 0 1-.037-.405 1.4 1.4 0 0 1 .188-.532c.93-1.75 1.643-3.62 2.138-5.61a25.09 25.09 0 0 0 .742-6.077zM905.981 39.29v21.69h-3.555V46.97a19.81 19.81 0 0 1 .09-1.815l-6.555 12.315c-.31.59-.785.885-1.425.885h-.57c-.64 0-1.115-.295-1.425-.885l-6.63-12.36.075.976.03.885v14.01h-3.555V39.29h3.045l.465.016a1.26 1.26 0 0 1 .353.075c.105.04.2.104.285.194s.167.21.248.36l6.495 12.045.472.99.428 1.05.435-1.072.48-.998 6.405-12.015c.08-.15.165-.271.255-.36a.85.85 0 0 1 .292-.194 1.26 1.26 0 0 1 .353-.075l.465-.016h3.044z"/><use xlink:href="#K" x="-664.484" y="-792.5"/><path d="M939.146 38.69v22.29h-2.265c-.49 0-.8-.225-.93-.675l-.315-1.485c-.62.71-1.333 1.285-2.138 1.726s-1.743.659-2.813.659c-.84 0-1.61-.175-2.31-.524s-1.302-.857-1.807-1.522-.895-1.487-1.17-2.468-.412-2.1-.412-3.36c0-1.14.155-2.199.465-3.18s.755-1.83 1.335-2.55 1.275-1.282 2.085-1.688 1.72-.607 2.73-.607c.86 0 1.595.135 2.205.405a5.65 5.65 0 0 1 1.635 1.095V38.69h3.705zm-3.705 10.831c-.42-.51-.878-.87-1.373-1.08a4.05 4.05 0 0 0-1.598-.315 3.54 3.54 0 0 0-1.515.315 3.05 3.05 0 0 0-1.155.952c-.32.426-.565.966-.735 1.62s-.255 1.428-.255 2.317c0 .9.073 1.663.218 2.288s.353 1.135.623 1.53.6.68.99.854.825.263 1.305.263c.77 0 1.425-.16 1.965-.48s1.05-.774 1.53-1.364v-6.9z"/><use xlink:href="#t" x="836.753" y="-792.5"/><path d="M957.236 45.351c1.14 0 2.177.185 3.112.555s1.735.896 2.4 1.575 1.178 1.51 1.538 2.49.54 2.075.54 3.285c0 1.22-.18 2.319-.54 3.3a7.07 7.07 0 0 1-1.538 2.505c-.665.691-1.465 1.22-2.4 1.59s-1.973.555-3.112.555c-1.15 0-2.195-.185-3.135-.555s-1.743-.9-2.407-1.59-1.18-1.525-1.545-2.505-.548-2.08-.548-3.3c0-1.21.183-2.306.548-3.285s.879-1.811 1.545-2.49 1.467-1.205 2.407-1.575 1.984-.555 3.135-.555zm0 13.004c1.28 0 2.228-.43 2.842-1.29s.922-2.12.922-3.78-.307-2.925-.922-3.795-1.563-1.305-2.842-1.305c-1.3 0-2.263.438-2.888 1.313s-.938 2.138-.938 3.787.313 2.908.938 3.772 1.588 1.298 2.888 1.298zm37.559-8.219c0 1.59-.265 3.05-.795 4.38s-1.275 2.475-2.235 3.435-2.115 1.705-3.465 2.235-2.85.795-4.5.795h-8.265V39.29h8.265c1.65 0 3.15.269 4.5.803s2.505 1.28 3.465 2.235 1.705 2.098 2.235 3.428.795 2.79.795 4.38zm-4.14 0c0-1.19-.158-2.258-.473-3.203s-.77-1.744-1.365-2.399-1.315-1.157-2.16-1.508-1.798-.525-2.857-.525h-4.215v15.271h4.215c1.06 0 2.012-.175 2.857-.525s1.565-.853 2.16-1.507 1.05-1.455 1.365-2.4.473-2.015.473-3.204z"/><use xlink:href="#K" x="-576.674" y="-792.5"/><path d="M1035.701 42.605h-6.54V60.98h-4.035V42.605h-6.54V39.29h17.115v3.315z"/><use xlink:href="#L" x="-555.329" y="-792.5"/><path d="M1045.571 47.735c1.77-1.62 3.9-2.43 6.39-2.43.9 0 1.705.147 2.415.442s1.31.705 1.8 1.229.862 1.153 1.117 1.883.383 1.53.383 2.4v9.72h-1.68c-.35 0-.62-.053-.81-.157s-.34-.317-.45-.638l-.33-1.11c-.39.351-.771.658-1.14.923a6.71 6.71 0 0 1-1.155.667 6.2 6.2 0 0 1-1.282.413 7.39 7.39 0 0 1-1.507.143c-.65 0-1.25-.088-1.8-.263a3.97 3.97 0 0 1-1.425-.787 3.54 3.54 0 0 1-.93-1.306c-.22-.52-.33-1.125-.33-1.814 0-.391.065-.777.195-1.163a3.41 3.41 0 0 1 .637-1.103c.295-.35.677-.68 1.147-.989s1.047-.58 1.732-.811 1.482-.417 2.393-.563 1.95-.232 3.12-.263v-.899c0-1.03-.22-1.793-.66-2.288s-1.075-.742-1.905-.742c-.6 0-1.098.07-1.493.21s-.742.298-1.042.473l-.817.473a1.62 1.62 0 0 1-.817.21c-.26 0-.48-.067-.66-.203a1.69 1.69 0 0 1-.435-.472l-.661-1.185zm8.49 6.675c-1.07.051-1.97.143-2.7.277s-1.315.308-1.755.518-.755.455-.945.735-.285.585-.285.915c0 .65.192 1.115.578 1.395s.887.421 1.507.421c.76 0 1.417-.138 1.973-.413s1.097-.692 1.627-1.252V54.41z"/><use xlink:href="#N" x="-570.674" y="-792.5"/><use xlink:href="#M" x="-523.334" y="-792.5"/><path d="M1094.77 47.69c.63-.71 1.345-1.285 2.145-1.725s1.74-.66 2.82-.66c.84 0 1.607.175 2.302.524s1.295.858 1.8 1.522.895 1.485 1.17 2.46.413 2.093.413 3.353c0 1.15-.155 2.216-.465 3.195s-.752 1.83-1.328 2.55-1.27 1.283-2.085 1.688-1.728.607-2.737.607c-.86 0-1.595-.132-2.205-.397a5.37 5.37 0 0 1-1.635-1.103v6.301h-3.705V45.591h2.265c.48 0 .795.225.945.675l.3 1.424zm.195 9.3c.42.51.877.87 1.373 1.08s1.032.315 1.612.315a3.54 3.54 0 0 0 1.515-.315 2.95 2.95 0 0 0 1.147-.96c.315-.43.557-.973.728-1.627s.255-1.428.255-2.318c0-.899-.073-1.662-.218-2.287s-.352-1.133-.622-1.522-.598-.675-.983-.855-.822-.27-1.313-.27c-.77 0-1.425.163-1.965.487s-1.05.783-1.53 1.373v6.899z"/><use xlink:href="#I" x="-417.675" y="-792.5"/><use xlink:href="#L" x="-464.73" y="-792.5"/><path d="M1141.854 61.221c-1.34 0-2.368-.378-3.083-1.133s-1.072-1.797-1.072-3.127v-8.596h-1.575a.72.72 0 0 1-.51-.194c-.14-.13-.21-.325-.21-.585v-1.471l2.475-.404.78-4.2c.05-.2.145-.355.285-.465s.32-.165.54-.165h1.92v4.845h4.11v2.64h-4.11v8.34c0 .48.118.855.353 1.125s.558.405.968.405c.23 0 .422-.027.578-.082s.29-.113.405-.173l.308-.173c.09-.055.18-.082.27-.082.11 0 .2.027.27.082s.145.138.225.248l1.11 1.8a5.61 5.61 0 0 1-1.86 1.02 6.97 6.97 0 0 1-2.177.345z"/><use xlink:href="#K" x="-426.481" y="-792.5"/></g><defs ><path id="B" d="M1725.395 671.374c1.14 0 2.177.185 3.112.555s1.735.896 2.4 1.575 1.178 1.51 1.538 2.49.54 2.075.54 3.285c0 1.22-.18 2.319-.54 3.3s-.873 1.814-1.538 2.505-1.465 1.22-2.4 1.59-1.973.555-3.112.555c-1.15 0-2.195-.185-3.135-.555s-1.743-.9-2.407-1.59-1.18-1.525-1.545-2.505-.548-2.08-.548-3.3c0-1.21.183-2.306.548-3.285s.879-1.811 1.545-2.49 1.467-1.205 2.407-1.575 1.985-.555 3.135-.555zm0 13.005c1.28 0 2.228-.43 2.842-1.29s.922-2.12.922-3.78-.307-2.925-.922-3.795-1.563-1.305-2.842-1.305c-1.3 0-2.263.438-2.888 1.313s-.938 2.138-.938 3.787.313 2.908.938 3.772 1.588 1.298 2.888 1.298z"/><path id="C" d="M1740.65 687.244c-1.34 0-2.368-.378-3.083-1.133s-1.072-1.797-1.072-3.127v-8.596h-1.575a.72.72 0 0 1-.51-.194c-.14-.13-.21-.325-.21-.585v-1.471l2.475-.404.78-4.2c.05-.2.145-.355.285-.465s.32-.165.54-.165h1.92v4.845h4.11v2.64h-4.11v8.34c0 .48.118.855.353 1.125s.558.405.968.405c.23 0 .422-.027.578-.082s.29-.113.405-.173l.308-.173c.09-.055.18-.082.27-.082.11 0 .2.027.27.082s.145.138.225.248l1.11 1.8a5.61 5.61 0 0 1-1.86 1.02c-.702.23-1.427.345-2.177.345z"/><path id="D" d="M1753.37 671.374c1.14 0 2.177.185 3.112.555s1.735.896 2.4 1.575 1.178 1.51 1.538 2.49.54 2.075.54 3.285c0 1.22-.18 2.319-.54 3.3s-.873 1.814-1.538 2.505-1.465 1.22-2.4 1.59-1.973.555-3.112.555c-1.15 0-2.195-.185-3.135-.555s-1.743-.9-2.407-1.59-1.18-1.525-1.545-2.505-.548-2.08-.548-3.3c0-1.21.183-2.306.548-3.285s.879-1.811 1.545-2.49 1.467-1.205 2.407-1.575 1.984-.555 3.135-.555zm0 13.005c1.28 0 2.228-.43 2.842-1.29s.922-2.12.922-3.78-.307-2.925-.922-3.795-1.563-1.305-2.842-1.305c-1.3 0-2.263.438-2.888 1.313s-.938 2.138-.938 3.787.313 2.908.938 3.772 1.587 1.298 2.888 1.298z"/><path id="E" d="M1437.221 853.48v-15.39h2.265c.48 0 .795.225.945.675l.24 1.14c.27-.3.553-.575.848-.825a5.5 5.5 0 0 1 .945-.645c.335-.18.695-.322 1.08-.428s.808-.157 1.268-.157c.97 0 1.768.263 2.393.787s1.092 1.223 1.402 2.093c.24-.51.54-.947.9-1.313s.755-.662 1.185-.893.888-.399 1.373-.51.973-.165 1.462-.165c.85 0 1.605.13 2.265.39s1.215.641 1.665 1.141.792 1.109 1.027 1.83.353 1.545.353 2.475v9.795h-3.705v-9.795c0-.98-.215-1.718-.645-2.213s-1.06-.742-1.89-.742c-.38 0-.733.065-1.058.195s-.61.317-.855.563-.438.553-.578.922-.21.795-.21 1.275v9.795h-3.72v-9.795c0-1.03-.208-1.78-.623-2.25s-1.022-.705-1.823-.705a3 3 0 0 0-1.507.397c-.465.264-.897.628-1.297 1.088v11.265h-3.705z"/><path id="F" d="M1461.986 840.235c1.77-1.62 3.9-2.43 6.39-2.43.9 0 1.705.147 2.415.442s1.31.705 1.8 1.229.862 1.153 1.117 1.883.383 1.53.383 2.4v9.72h-1.68c-.35 0-.62-.053-.81-.157s-.34-.317-.45-.638l-.33-1.11c-.39.351-.771.658-1.14.923a6.71 6.71 0 0 1-1.155.667 6.2 6.2 0 0 1-1.282.413 7.39 7.39 0 0 1-1.507.143c-.65 0-1.25-.088-1.8-.263a3.97 3.97 0 0 1-1.425-.787 3.54 3.54 0 0 1-.93-1.306c-.22-.52-.33-1.125-.33-1.814 0-.391.065-.777.195-1.163a3.41 3.41 0 0 1 .637-1.103c.295-.35.677-.68 1.147-.989s1.047-.58 1.732-.811 1.482-.417 2.393-.563 1.95-.232 3.12-.263v-.899c0-1.03-.22-1.793-.66-2.288s-1.075-.742-1.905-.742c-.6 0-1.098.07-1.493.21s-.742.298-1.042.473l-.817.473a1.62 1.62 0 0 1-.817.21c-.26 0-.48-.067-.66-.203a1.69 1.69 0 0 1-.435-.472l-.661-1.185zm8.49 6.675c-1.07.051-1.97.143-2.7.277s-1.315.308-1.755.518-.755.455-.945.735-.285.585-.285.915c0 .65.192 1.115.578 1.395s.887.421 1.507.421c.76 0 1.417-.138 1.973-.413s1.097-.692 1.627-1.252v-2.596z"/><path id="G" d="M1491.311 853.48h-3.57c-.27 0-.487-.07-.652-.21s-.303-.3-.413-.48l-3.255-5.354a4.07 4.07 0 0 1-.173.479c-.065.15-.137.291-.217.421l-2.88 4.454c-.11.171-.245.328-.405.473s-.36.218-.6.218h-3.315l5.28-7.935-5.07-7.455h3.57c.27 0 .47.037.6.112s.245.197.345.367l3.225 5.13c.11-.34.265-.675.465-1.005l2.595-4.05c.22-.37.505-.555.855-.555h3.405l-5.055 7.29 5.265 8.1z"/><path id="H" d="M1497.581 833.605a2.11 2.11 0 0 1-.195.9c-.13.279-.302.524-.518.734s-.467.378-.757.503-.6.188-.93.188c-.32 0-.622-.063-.907-.188s-.533-.293-.743-.503-.377-.455-.502-.734-.188-.58-.188-.9c0-.33.063-.64.188-.93a2.38 2.38 0 0 1 .502-.75c.21-.21.458-.378.743-.503s.587-.188.907-.188c.33 0 .64.063.93.188s.542.293.757.503a2.42 2.42 0 0 1 .518.75c.13.29.195.6.195.93zm-.511 4.486v15.39h-3.72v-15.39h3.72z"/><path id="I" d="M1532.785 837.851c1.14 0 2.177.185 3.112.555s1.735.896 2.4 1.575 1.178 1.51 1.538 2.49.54 2.075.54 3.285c0 1.22-.18 2.319-.54 3.3s-.873 1.814-1.538 2.505-1.465 1.22-2.4 1.59-1.973.555-3.112.555c-1.15 0-2.195-.185-3.135-.555s-1.743-.9-2.407-1.59-1.18-1.525-1.545-2.505-.548-2.08-.548-3.3c0-1.21.183-2.306.548-3.285s.879-1.811 1.545-2.49 1.467-1.205 2.407-1.575 1.985-.555 3.135-.555zm0 13.004c1.28 0 2.228-.43 2.842-1.29s.922-2.12.922-3.78-.307-2.925-.922-3.795-1.563-1.305-2.842-1.305c-1.3 0-2.263.438-2.888 1.313s-.938 2.138-.938 3.787.313 2.908.938 3.772 1.588 1.298 2.888 1.298z"/><path id="J" d="M1554.28 855.49v2.4h-11.82v-2.4h11.82z"/><path id="K" d="M1577.095 846.25c.06.791.2 1.473.42 2.048s.51 1.05.87 1.425.787.655 1.282.84 1.042.278 1.643.278 1.118-.07 1.552-.21.815-.295 1.14-.466l.855-.465c.245-.14.482-.21.712-.21.31 0 .54.115.69.346l1.065 1.35c-.41.479-.87.883-1.38 1.207s-1.042.585-1.597.78-1.12.332-1.695.413-1.132.119-1.672.119c-1.07 0-2.065-.178-2.985-.532a6.67 6.67 0 0 1-2.4-1.575c-.68-.694-1.215-1.555-1.605-2.58s-.585-2.212-.585-3.563c0-1.05.17-2.037.51-2.962s.827-1.73 1.462-2.415 1.41-1.228 2.325-1.628 1.947-.6 3.097-.6c.97 0 1.865.155 2.685.465s1.525.763 2.115 1.357 1.052 1.325 1.387 2.19.503 1.853.503 2.962c0 .561-.06.938-.18 1.133s-.35.292-.69.292h-9.524zm7.065-2.234a4.42 4.42 0 0 0-.203-1.357c-.135-.425-.337-.798-.607-1.118s-.613-.572-1.027-.757-.898-.277-1.448-.277c-1.07 0-1.913.305-2.527.915s-1.008 1.475-1.178 2.595h6.99z"/><path id="L" d="M1593.76 840.761c.48-.92 1.05-1.643 1.71-2.168s1.44-.787 2.34-.787c.71 0 1.28.155 1.71.465l-.24 2.775c-.05.18-.123.307-.218.382a.6.6 0 0 1-.382.112c-.15 0-.373-.024-.667-.074s-.583-.075-.863-.075c-.41 0-.775.06-1.095.18a2.77 2.77 0 0 0-.863.518c-.255.225-.48.498-.675.817s-.377.686-.547 1.095v9.48h-3.705v-15.39h2.175c.38 0 .645.067.795.202s.25.378.3.728l.225 1.74z"/><path id="M" d="M1610.799 841.091c-.1.16-.205.272-.315.337s-.25.098-.42.098c-.18 0-.373-.05-.577-.15l-.713-.337c-.27-.125-.577-.237-.922-.338s-.752-.149-1.223-.149c-.73 0-1.302.155-1.717.465s-.623.715-.623 1.215c0 .33.107.607.323.832s.5.423.855.593a8.4 8.4 0 0 0 1.208.458l1.372.442 1.373.547c.45.205.853.466 1.208.78s.64.692.855 1.133.323.97.323 1.59c0 .74-.133 1.423-.397 2.048s-.658 1.165-1.178 1.62-1.163.81-1.927 1.064-1.648.383-2.647.383c-.53 0-1.048-.048-1.553-.143a9.38 9.38 0 0 1-1.455-.397 7.97 7.97 0 0 1-1.29-.601c-.395-.229-.742-.479-1.042-.75l.855-1.409c.11-.17.24-.301.39-.391s.34-.135.57-.135a1.2 1.2 0 0 1 .653.195l.712.42c.27.149.587.29.953.42s.827.194 1.387.194c.44 0 .817-.052 1.133-.157s.575-.242.78-.412a1.55 1.55 0 0 0 .45-.593c.095-.225.142-.457.142-.697 0-.36-.107-.655-.322-.885s-.5-.431-.855-.601a8.26 8.26 0 0 0-1.215-.457l-1.395-.442a12.91 12.91 0 0 1-1.395-.563c-.455-.215-.86-.488-1.215-.818a3.68 3.68 0 0 1-.855-1.215c-.215-.479-.322-1.06-.322-1.739 0-.631.125-1.23.375-1.801a4.22 4.22 0 0 1 1.103-1.492c.485-.425 1.09-.765 1.815-1.02s1.563-.383 2.513-.383c1.06 0 2.025.175 2.895.524s1.595.811 2.175 1.381l-.845 1.336z"/><path id="N" d="M1635.294 839.98c.31-.31.638-.598.982-.862s.71-.49 1.095-.675.797-.33 1.237-.436.92-.157 1.44-.157c.84 0 1.585.143 2.235.428s1.192.685 1.627 1.199.765 1.131.99 1.846.338 1.502.338 2.362v9.795h-3.705v-9.795c0-.939-.215-1.667-.645-2.183s-1.085-.772-1.965-.772a3.87 3.87 0 0 0-1.8.435 6.48 6.48 0 0 0-1.59 1.186v11.13h-3.705v-15.39h2.265c.48 0 .795.225.945.675l.256 1.214z"/><path id="O" d="M1648.389 840.235c1.77-1.62 3.9-2.43 6.39-2.43.9 0 1.705.147 2.415.442s1.31.705 1.8 1.229.862 1.153 1.117 1.883.383 1.53.383 2.4v9.72h-1.68c-.35 0-.62-.053-.81-.157s-.34-.317-.45-.638l-.33-1.11c-.39.351-.771.658-1.14.923a6.71 6.71 0 0 1-1.155.667 6.2 6.2 0 0 1-1.282.413 7.39 7.39 0 0 1-1.507.143c-.65 0-1.25-.088-1.8-.263a3.97 3.97 0 0 1-1.425-.787 3.54 3.54 0 0 1-.93-1.306c-.22-.52-.33-1.125-.33-1.814 0-.391.065-.777.195-1.163a3.41 3.41 0 0 1 .637-1.103c.295-.35.677-.68 1.147-.989s1.047-.58 1.732-.811 1.482-.417 2.393-.563 1.95-.232 3.12-.263v-.899c0-1.03-.22-1.793-.66-2.288s-1.075-.742-1.905-.742c-.6 0-1.098.07-1.493.21s-.742.298-1.042.473l-.817.473a1.62 1.62 0 0 1-.817.21c-.26 0-.48-.067-.66-.203a1.69 1.69 0 0 1-.435-.472l-.661-1.185zm8.489 6.675c-1.07.051-1.97.143-2.7.277s-1.315.308-1.755.518-.755.455-.945.735-.285.585-.285.915c0 .65.192 1.115.578 1.395s.887.421 1.507.421c.76 0 1.417-.138 1.973-.413s1.097-.692 1.627-1.252v-2.596z"/><path id="P" d="M1679.634 844.075a24.83 24.83 0 0 0 .75 6.075c.5 1.99 1.215 3.86 2.145 5.61.1.199.157.377.172.532a.95.95 0 0 1-.038.405.79.79 0 0 1-.188.3 1.51 1.51 0 0 1-.277.218l-1.65 1.005c-.74-1.141-1.371-2.285-1.89-3.436s-.945-2.31-1.275-3.479-.573-2.355-.728-3.556a28.65 28.65 0 0 1-.232-3.675c0-1.25.077-2.478.232-3.683s.397-2.393.728-3.563.755-2.327 1.275-3.472 1.15-2.288 1.89-3.428l1.65.99a1.43 1.43 0 0 1 .277.217c.085.085.147.186.188.3s.053.251.038.405-.073.338-.172.548c-.93 1.74-1.646 3.607-2.145 5.603s-.75 4.025-.75 6.084z"/><path id="Q" d="M1717.809 831.19v22.29h-3.705v-22.29h3.705z"/><path id="R" d="M1722.593 853.48v-12.6l-1.335-.21c-.291-.061-.523-.163-.698-.308s-.262-.353-.262-.623v-1.515h2.295v-1.14c0-.88.132-1.67.397-2.37s.645-1.295 1.14-1.785 1.098-.865 1.808-1.125 1.51-.391 2.4-.391c.71 0 1.37.096 1.98.285l-.075 1.86c-.01.14-.05.253-.12.338s-.163.149-.277.194-.248.075-.397.09-.31.022-.48.022c-.44 0-.833.048-1.178.143a2 2 0 0 0-.877.495c-.24.235-.422.545-.547.931s-.188.862-.188 1.432v1.021h4.005v2.64h-3.885v12.615h-3.706z"/><path id="S" d="M1734.518 844.075a25.16 25.16 0 0 0-.743-6.082c-.495-1.995-1.208-3.862-2.137-5.603-.11-.21-.173-.393-.188-.548s-.003-.29.037-.405a.79.79 0 0 1 .188-.3c.085-.085.183-.157.293-.217l1.65-.99c.74 1.14 1.37 2.282 1.89 3.428s.945 2.302 1.275 3.472.57 2.358.72 3.563.225 2.433.225 3.683-.075 2.476-.225 3.675-.39 2.386-.72 3.556-.755 2.33-1.275 3.479-1.15 2.295-1.89 3.436l-1.65-1.005c-.11-.061-.208-.133-.293-.218s-.147-.186-.188-.3a.95.95 0 0 1-.037-.405 1.4 1.4 0 0 1 .188-.532c.93-1.75 1.643-3.62 2.137-5.61s.743-4.016.743-6.077z"/><path id="T" d="M1475.02 904.087c-.11.14-.217.25-.322.33s-.258.12-.458.12a1.02 1.02 0 0 1-.555-.173l-.645-.39c-.25-.146-.547-.275-.893-.391s-.772-.172-1.282-.172c-.65 0-1.22.117-1.71.353a3.23 3.23 0 0 0-1.223 1.012c-.325.44-.568.973-.728 1.598s-.24 1.333-.24 2.123c0 .819.087 1.55.263 2.189s.428 1.178.757 1.612a3.24 3.24 0 0 0 1.2.99c.47.226 1 .338 1.59.338s1.067-.072 1.433-.218.672-.305.922-.48l.653-.479c.185-.145.392-.218.623-.218.3 0 .525.115.675.346l1.065 1.35c-.41.479-.855.883-1.335 1.207a7.22 7.22 0 0 1-1.493.78c-.515.195-1.045.332-1.59.413s-1.087.119-1.627.119c-.95 0-1.845-.178-2.685-.532s-1.575-.872-2.205-1.553-1.127-1.512-1.492-2.497-.548-2.107-.548-3.367c0-1.13.163-2.178.488-3.143s.802-1.801 1.432-2.505 1.41-1.258 2.34-1.658 2-.6 3.21-.6c1.15 0 2.157.185 3.022.555s1.643.9 2.333 1.59l-.975 1.351z"/><path id="U" d="M1598.963 919.896c-.18-.149-.27-.335-.27-.555 0-.08.027-.17.083-.271s.123-.189.203-.27l.405-.442c.16-.175.32-.375.48-.601a5.78 5.78 0 0 0 .442-.734c.135-.266.238-.548.308-.848-.32 0-.61-.058-.87-.173a1.97 1.97 0 0 1-.667-.473c-.185-.199-.33-.435-.435-.704s-.157-.565-.157-.886a1.98 1.98 0 0 1 .6-1.433 2.03 2.03 0 0 1 .69-.435 2.42 2.42 0 0 1 .885-.157c.38 0 .713.067.998.202s.52.32.705.555a2.5 2.5 0 0 1 .42.811 3.24 3.24 0 0 1 .143.968c0 .479-.073.984-.217 1.515s-.358 1.06-.638 1.59-.627 1.045-1.042 1.545-.888.96-1.417 1.38l-.649-.584z"/><path id="V" d="M1617.039 893.932v12.765h.69c.25 0 .447-.032.592-.097s.292-.198.442-.397l3.825-4.726c.16-.21.337-.37.533-.479s.447-.165.757-.165h3.39l-4.785 5.715c-.34.45-.71.795-1.11 1.035.21.149.397.325.563.524s.322.415.472.646l5.13 7.47h-3.345c-.29 0-.54-.047-.75-.143s-.385-.268-.525-.518l-3.93-5.835c-.14-.229-.285-.38-.435-.45s-.375-.104-.675-.104h-.84v7.05h-3.705v-22.29h3.706z"/><path id="W" d="M1633.718 896.347a2.11 2.11 0 0 1-.195.9c-.13.279-.302.524-.518.734s-.467.378-.757.503-.6.188-.93.188c-.32 0-.622-.063-.907-.188s-.533-.293-.743-.503-.377-.455-.502-.734-.188-.58-.188-.9c0-.33.063-.64.188-.93a2.38 2.38 0 0 1 .502-.75c.21-.21.458-.378.743-.503s.587-.188.907-.188c.33 0 .64.063.93.188s.542.293.757.503a2.42 2.42 0 0 1 .518.75c.13.29.195.6.195.93zm-.51 4.485v15.39h-3.72v-15.39h3.72z"/><path id="X" d="M793.11 124.476c.62-.65 1.307-1.167 2.063-1.553s1.617-.577 2.587-.577c.89 0 1.692.175 2.407.524a5.17 5.17 0 0 1 1.83 1.508c.505.655.893 1.447 1.163 2.378s.405 1.975.405 3.135c0 1.25-.155 2.385-.465 3.405s-.752 1.893-1.328 2.617-1.267 1.288-2.077 1.688-1.71.6-2.7.6c-.48 0-.915-.047-1.305-.143a4.86 4.86 0 0 1-1.08-.397 4.36 4.36 0 0 1-.908-.622 7.75 7.75 0 0 1-.788-.817l-.165 1.035c-.06.26-.163.444-.307.555s-.343.165-.593.165h-2.445v-22.29h3.705v8.789zm0 9.509c.42.51.877.87 1.373 1.08a3.97 3.97 0 0 0 1.567.315c.57 0 1.082-.103 1.538-.308s.842-.525 1.162-.96.565-.99.735-1.665.255-1.482.255-2.423c0-1.689-.28-2.912-.84-3.667s-1.365-1.133-2.415-1.133c-.71 0-1.33.163-1.86.487s-1.035.783-1.515 1.373v6.901z"/><path id="Y" d="M819.69 122.586v15.39h-2.265c-.49 0-.8-.225-.93-.675l-.255-1.23c-.63.641-1.325 1.158-2.085 1.553s-1.655.593-2.685.593c-.84 0-1.583-.143-2.228-.428a4.46 4.46 0 0 1-1.627-1.207c-.44-.521-.772-1.138-.998-1.853s-.337-1.503-.337-2.363v-9.779h3.705v9.779c0 .94.218 1.668.653 2.183s1.087.772 1.958.772c.64 0 1.24-.143 1.8-.427s1.09-.678 1.59-1.178v-11.13h3.704z"/><path id="Z" d="M765.197 212.099c0 .32-.065.621-.195.9s-.302.525-.518.734-.467.379-.757.504-.6.188-.93.188c-.32 0-.622-.063-.907-.188s-.533-.293-.743-.504-.377-.455-.502-.734a2.18 2.18 0 0 1-.188-.9 2.33 2.33 0 0 1 .188-.93 2.4 2.4 0 0 1 .502-.75c.21-.209.458-.377.743-.502s.587-.188.907-.188c.33 0 .64.063.93.188a2.49 2.49 0 0 1 .757.502c.215.211.388.461.518.75s.195.6.195.93zm-.51 4.486v15.389h-3.72v-15.389h3.72z"/><path id="a" d="M771.932 218.474c.31-.309.638-.598.982-.861s.71-.49 1.095-.676.797-.33 1.237-.436.92-.156 1.44-.156c.84 0 1.585.143 2.235.428a4.39 4.39 0 0 1 1.627 1.199c.435.515.765 1.131.99 1.846s.338 1.502.338 2.361v9.795h-3.705v-9.795c0-.939-.215-1.666-.645-2.182s-1.085-.773-1.965-.773a3.86 3.86 0 0 0-1.8.436 6.48 6.48 0 0 0-1.59 1.186v11.129h-3.705v-15.389h2.265c.48 0 .795.225.945.674l.256 1.214z"/><path id="b" d="M849.241 219.585c-.1.16-.205.271-.315.336s-.25.098-.42.098c-.18 0-.373-.049-.577-.15l-.713-.336c-.27-.125-.577-.238-.922-.338s-.752-.15-1.223-.15c-.73 0-1.302.156-1.717.465s-.623.715-.623 1.215c0 .33.107.607.323.832s.5.424.855.594.757.322 1.208.457l1.372.443 1.373.547a4.84 4.84 0 0 1 1.208.779c.355.316.64.693.855 1.133s.323.971.323 1.59c0 .74-.133 1.424-.397 2.049a4.42 4.42 0 0 1-1.178 1.619c-.52.455-1.163.811-1.927 1.064s-1.648.383-2.647.383a8.3 8.3 0 0 1-1.553-.143 9.38 9.38 0 0 1-1.455-.396 7.97 7.97 0 0 1-1.29-.602c-.395-.229-.742-.479-1.042-.75l.855-1.408c.11-.17.24-.301.39-.391s.34-.135.57-.135a1.19 1.19 0 0 1 .653.195l.712.42a6.65 6.65 0 0 0 .953.42c.365.129.827.193 1.387.193.44 0 .817-.051 1.133-.156s.575-.242.78-.412.355-.369.45-.594.142-.457.142-.697c0-.359-.107-.654-.322-.885s-.5-.43-.855-.6a8.26 8.26 0 0 0-1.215-.457l-1.395-.443a12.91 12.91 0 0 1-1.395-.563c-.455-.215-.86-.488-1.215-.818s-.64-.734-.855-1.215-.322-1.059-.322-1.738c0-.631.125-1.23.375-1.801a4.19 4.19 0 0 1 1.103-1.492c.485-.426 1.09-.766 1.815-1.02s1.563-.383 2.513-.383c1.06 0 2.025.174 2.895.523s1.595.811 2.175 1.381l-.845 1.337z"/><path id="c" d="M855.886 224.743c.06.791.2 1.473.42 2.049s.51 1.049.87 1.424.787.656 1.282.84 1.042.279 1.643.279 1.118-.07 1.552-.211.815-.295 1.14-.465l.855-.465c.245-.141.482-.211.712-.211.31 0 .54.115.69.346l1.065 1.35c-.41.48-.87.883-1.38 1.207a7.69 7.69 0 0 1-1.597.781 8.73 8.73 0 0 1-1.695.412c-.575.08-1.132.119-1.672.119-1.07 0-2.065-.178-2.985-.531s-1.72-.881-2.4-1.576-1.215-1.555-1.605-2.58-.585-2.211-.585-3.563a8.51 8.51 0 0 1 .51-2.961c.34-.926.827-1.73 1.462-2.416s1.41-1.227 2.325-1.627 1.947-.6 3.097-.6c.97 0 1.865.154 2.685.465s1.525.762 2.115 1.357 1.052 1.324 1.387 2.189.503 1.854.503 2.963c0 .561-.06.938-.18 1.133s-.35.291-.69.291h-9.524zm7.065-2.234c0-.48-.067-.932-.203-1.357s-.337-.797-.607-1.117-.613-.572-1.027-.758-.898-.277-1.448-.277c-1.07 0-1.913.305-2.527.916s-1.008 1.475-1.178 2.594h6.99z"/><path id="d" d="M914.175 216.585v15.389h-2.265c-.49 0-.8-.225-.93-.674l-.255-1.23c-.63.641-1.325 1.158-2.085 1.553s-1.655.592-2.685.592c-.84 0-1.583-.143-2.228-.428a4.46 4.46 0 0 1-1.627-1.207c-.44-.52-.772-1.137-.998-1.852s-.337-1.504-.337-2.363v-9.779h3.705v9.779c0 .939.218 1.668.653 2.182s1.087.773 1.958.773c.64 0 1.24-.143 1.8-.428s1.09-.678 1.59-1.178v-11.129h3.704z"/><path id="e" d="M934.395 218.729c1.77-1.621 3.9-2.43 6.39-2.43.9 0 1.705.146 2.415.441s1.31.705 1.8 1.23.862 1.152 1.117 1.883.383 1.529.383 2.4v9.719h-1.68c-.35 0-.62-.053-.81-.156s-.34-.318-.45-.639l-.33-1.109c-.39.35-.771.658-1.14.922a6.65 6.65 0 0 1-1.155.668 6.26 6.26 0 0 1-1.282.412 7.32 7.32 0 0 1-1.507.143 5.94 5.94 0 0 1-1.8-.262c-.55-.176-1.025-.438-1.425-.787s-.71-.785-.93-1.307-.33-1.125-.33-1.814c0-.391.065-.777.195-1.162s.342-.752.637-1.104.677-.68 1.147-.988 1.047-.58 1.732-.811a14.84 14.84 0 0 1 2.393-.563c.911-.145 1.95-.232 3.12-.264v-.898c0-1.031-.22-1.793-.66-2.289s-1.075-.742-1.905-.742c-.6 0-1.098.07-1.493.211s-.742.297-1.042.473l-.817.473a1.63 1.63 0 0 1-.817.209c-.26 0-.48-.066-.66-.203s-.325-.291-.435-.471l-.661-1.185zm8.49 6.674c-1.07.051-1.97.143-2.7.277s-1.315.309-1.755.518-.755.455-.945.736a1.59 1.59 0 0 0-.285.914c0 .65.192 1.115.578 1.395s.887.422 1.507.422c.76 0 1.417-.139 1.973-.414s1.097-.691 1.627-1.252v-2.596z"/><path id="f" d="M975 219.839c-.11.141-.217.25-.322.33s-.258.121-.458.121a1.02 1.02 0 0 1-.555-.174l-.645-.389c-.25-.146-.547-.275-.893-.391s-.772-.172-1.282-.172c-.65 0-1.22.117-1.71.352a3.23 3.23 0 0 0-1.223 1.012c-.325.441-.568.973-.728 1.598s-.24 1.334-.24 2.123c0 .82.087 1.551.263 2.189s.428 1.178.757 1.613a3.24 3.24 0 0 0 1.2.99c.47.225 1 .338 1.59.338s1.067-.072 1.433-.219.672-.305.922-.48l.653-.479c.185-.145.392-.219.623-.219.3 0 .525.115.675.346l1.065 1.35c-.41.48-.855.883-1.335 1.207s-.978.586-1.493.781a7.59 7.59 0 0 1-1.59.412c-.545.08-1.087.119-1.627.119a6.86 6.86 0 0 1-2.685-.531c-.84-.355-1.575-.873-2.205-1.553s-1.127-1.512-1.492-2.498-.548-2.107-.548-3.367c0-1.129.163-2.178.488-3.143s.802-1.801 1.432-2.504 1.41-1.258 2.34-1.658 2-.6 3.21-.6c1.15 0 2.157.184 3.022.555a7.37 7.37 0 0 1 2.333 1.59l-.975 1.351z"/><path id="g" d="M995.399 231.974v-15.389h2.265c.48 0 .795.225.945.674l.24 1.141c.27-.301.553-.576.848-.826a5.56 5.56 0 0 1 .945-.645c.335-.18.695-.322 1.08-.428s.808-.156 1.268-.156c.97 0 1.768.262 2.393.787s1.092 1.223 1.402 2.092c.24-.51.54-.947.9-1.313s.755-.662 1.185-.893.888-.398 1.373-.51.973-.164 1.462-.164c.85 0 1.605.129 2.265.389s1.215.641 1.665 1.141.792 1.109 1.027 1.83.353 1.545.353 2.475v9.795h-3.705v-9.795c0-.98-.215-1.717-.645-2.213s-1.06-.742-1.89-.742c-.38 0-.733.066-1.058.195s-.61.318-.855.563-.438.553-.578.922-.21.795-.21 1.275v9.795h-3.72v-9.795c0-1.029-.208-1.779-.623-2.25s-1.022-.705-1.823-.705a2.99 2.99 0 0 0-1.507.398c-.465.264-.897.627-1.297 1.088v11.264h-3.705z"/><path id="h" d="M1024.229 218.474c.62-.65 1.307-1.166 2.063-1.553s1.617-.576 2.587-.576c.89 0 1.692.174 2.407.523a5.18 5.18 0 0 1 1.83 1.508c.505.656.893 1.447 1.163 2.379s.405 1.975.405 3.135c0 1.25-.155 2.385-.465 3.404s-.752 1.893-1.328 2.617-1.267 1.289-2.077 1.688-1.71.6-2.7.6c-.48 0-.915-.047-1.305-.143a4.86 4.86 0 0 1-1.08-.396 4.29 4.29 0 0 1-.908-.623 7.74 7.74 0 0 1-.788-.816l-.165 1.035c-.06.26-.163.443-.307.555s-.343.164-.593.164h-2.445v-22.289h3.705v8.788zm0 9.509c.42.51.877.871 1.373 1.08s1.017.316 1.567.316c.57 0 1.082-.104 1.538-.309a2.93 2.93 0 0 0 1.162-.959c.32-.436.565-.99.735-1.666s.255-1.482.255-2.422c0-1.689-.28-2.912-.84-3.668s-1.365-1.133-2.415-1.133c-.71 0-1.33.164-1.86.488s-1.035.783-1.515 1.373v6.9z"/><path id="i" d="M766.037 344.737c.48-.92 1.05-1.643 1.71-2.168s1.44-.787 2.34-.787c.71 0 1.28.154 1.71.465l-.24 2.775c-.05.18-.123.307-.218.381s-.223.113-.382.113c-.15 0-.373-.025-.667-.074s-.583-.076-.863-.076c-.41 0-.775.061-1.095.18a2.79 2.79 0 0 0-.863.518 3.53 3.53 0 0 0-.675.818c-.195.32-.377.686-.547 1.094v9.48h-3.705v-15.389h2.175c.38 0 .645.066.795.201s.25.379.3.729l.225 1.74z"/><path id="j" d="M980.129 350.226c.061.791.2 1.473.42 2.049s.511 1.049.87 1.424.788.656 1.283.84a4.63 4.63 0 0 0 1.642.279c.601 0 1.118-.07 1.553-.211s.815-.295 1.141-.465l.854-.465c.245-.141.482-.211.713-.211.31 0 .54.115.689.346l1.065 1.35c-.41.48-.87.883-1.38 1.207a7.72 7.72 0 0 1-1.598.781 8.73 8.73 0 0 1-1.695.412c-.575.08-1.132.119-1.672.119-1.07 0-2.065-.178-2.985-.531s-1.72-.881-2.4-1.576-1.215-1.555-1.604-2.58-.585-2.211-.585-3.563a8.51 8.51 0 0 1 .51-2.961c.34-.926.827-1.73 1.463-2.416s1.409-1.227 2.324-1.627 1.948-.6 3.098-.6c.97 0 1.865.154 2.686.465s1.524.762 2.114 1.357 1.053 1.324 1.388 2.189.503 1.854.503 2.963c0 .561-.061.938-.181 1.133s-.35.291-.689.291h-9.527zm7.065-2.235c0-.48-.067-.932-.202-1.357a3.25 3.25 0 0 0-.608-1.117c-.27-.32-.612-.572-1.027-.758s-.897-.277-1.447-.277c-1.07 0-1.912.305-2.527.916s-1.008 1.475-1.178 2.594h6.989z"/><path id="k" d="M1010.384 345.067a.99.99 0 0 1-.314.336c-.11.066-.25.098-.42.098-.181 0-.373-.049-.578-.15l-.712-.336a6.58 6.58 0 0 0-.923-.338c-.345-.1-.753-.15-1.223-.15-.729 0-1.303.156-1.718.465s-.622.715-.622 1.215c0 .33.107.607.322.832s.5.424.855.594.757.322 1.207.457l1.373.443 1.372.547a4.84 4.84 0 0 1 1.208.779c.354.316.64.693.854 1.133s.322.971.322 1.59c0 .74-.132 1.424-.397 2.049a4.42 4.42 0 0 1-1.177 1.619c-.521.455-1.163.811-1.928 1.064s-1.647.383-2.647.383a8.3 8.3 0 0 1-1.553-.143 9.38 9.38 0 0 1-1.455-.396c-.465-.169-.895-.371-1.29-.602s-.742-.479-1.042-.75l.854-1.408c.11-.17.24-.301.391-.391s.34-.135.569-.135a1.19 1.19 0 0 1 .652.195l.713.42c.27.148.587.289.952.42s.828.193 1.388.193c.44 0 .817-.051 1.133-.156s.575-.242.78-.412a1.56 1.56 0 0 0 .449-.594c.096-.225.143-.457.143-.697 0-.359-.107-.654-.322-.885s-.5-.43-.855-.6-.76-.322-1.215-.457l-1.395-.443c-.476-.16-.94-.348-1.396-.563s-.859-.488-1.215-.818-.64-.734-.854-1.215-.323-1.059-.323-1.738c0-.631.125-1.23.375-1.801s.618-1.068 1.103-1.492 1.09-.766 1.815-1.02 1.563-.383 2.513-.383c1.06 0 2.024.174 2.895.523s1.595.811 2.175 1.381l-.839 1.337z"/><path id="l" d="M1075.318 342.067v15.389h-2.265c-.49 0-.801-.225-.931-.674l-.255-1.23c-.63.641-1.325 1.158-2.085 1.553s-1.655.592-2.685.592c-.84 0-1.583-.143-2.228-.428s-1.188-.688-1.628-1.207a5.3 5.3 0 0 1-.997-1.852c-.225-.715-.338-1.504-.338-2.363v-9.779h3.705v9.779c0 .939.218 1.668.652 2.182s1.088.773 1.958.773c.64 0 1.239-.143 1.8-.428s1.09-.678 1.59-1.178v-11.129h3.707z"/><path id="m" d="M1170.148 343.956c.62-.65 1.308-1.166 2.063-1.553s1.617-.576 2.587-.576c.891 0 1.692.174 2.408.523a5.19 5.19 0 0 1 1.83 1.508c.505.656.893 1.447 1.162 2.379s.405 1.975.405 3.135c0 1.25-.155 2.385-.465 3.404s-.753 1.893-1.328 2.617-1.268 1.289-2.077 1.688-1.71.6-2.7.6c-.479 0-.915-.047-1.305-.143a4.84 4.84 0 0 1-1.08-.396 4.26 4.26 0 0 1-.907-.623 7.74 7.74 0 0 1-.788-.816l-.165 1.035c-.06.26-.162.443-.308.555s-.343.164-.592.164h-2.445v-22.289h3.705v8.788zm0 9.51c.42.51.877.871 1.372 1.08s1.018.316 1.567.316c.57 0 1.083-.104 1.538-.309a2.93 2.93 0 0 0 1.162-.959c.32-.436.565-.99.735-1.666s.255-1.482.255-2.422c0-1.689-.28-2.912-.84-3.668s-1.365-1.133-2.415-1.133c-.71 0-1.33.164-1.86.488s-1.035.783-1.515 1.373v6.9z"/><path id="n" d="M752.342 281.216c.31-.311.638-.598.982-.863a6.2 6.2 0 0 1 1.095-.674c.385-.186.797-.33 1.237-.436s.92-.158 1.44-.158c.84 0 1.585.143 2.235.428s1.192.686 1.627 1.199.765 1.131.99 1.846.338 1.502.338 2.363v9.795h-3.705v-9.795c0-.939-.215-1.668-.645-2.184s-1.085-.771-1.965-.771a3.87 3.87 0 0 0-1.8.434 6.48 6.48 0 0 0-1.59 1.186v11.131h-3.705v-15.391h2.265c.48 0 .795.225.945.676l.256 1.214z"/><path id="o" d="M780.243 281.995c.48-.92 1.05-1.643 1.71-2.168s1.44-.787 2.34-.787c.71 0 1.28.156 1.71.465l-.24 2.775c-.05.18-.123.307-.218.383s-.223.111-.382.111a4.2 4.2 0 0 1-.667-.074 5.27 5.27 0 0 0-.863-.074c-.41 0-.775.059-1.095.18a2.75 2.75 0 0 0-.863.518 3.56 3.56 0 0 0-.675.816c-.195.32-.377.686-.547 1.096v9.48h-3.705v-15.391h2.175c.38 0 .645.068.795.203s.25.377.3.727l.225 1.74z"/><path id="p" d="M787.382 281.47c1.77-1.619 3.9-2.43 6.39-2.43.9 0 1.705.148 2.415.443s1.31.705 1.8 1.229.862 1.154 1.117 1.883.383 1.531.383 2.4v9.721h-1.68c-.35 0-.62-.053-.81-.158s-.34-.316-.45-.637l-.33-1.111c-.39.352-.771.658-1.14.924a6.77 6.77 0 0 1-1.155.666c-.4.182-.827.318-1.282.414a7.46 7.46 0 0 1-1.507.143c-.65 0-1.25-.088-1.8-.264s-1.025-.438-1.425-.787-.71-.785-.93-1.305-.33-1.125-.33-1.814c0-.391.065-.777.195-1.164s.342-.752.637-1.102.677-.68 1.147-.99 1.047-.58 1.732-.811 1.482-.416 2.393-.563 1.95-.232 3.12-.262v-.9c0-1.029-.22-1.793-.66-2.287s-1.075-.742-1.905-.742c-.6 0-1.098.07-1.493.209s-.742.299-1.042.473l-.817.473a1.61 1.61 0 0 1-.817.211c-.26 0-.48-.068-.66-.203s-.325-.293-.435-.473l-.661-1.186zm8.49 6.676c-1.07.051-1.97.143-2.7.277s-1.315.307-1.755.518-.755.455-.945.734a1.6 1.6 0 0 0-.285.916c0 .65.192 1.115.578 1.395s.887.42 1.507.42c.76 0 1.417-.137 1.973-.412s1.097-.693 1.627-1.252v-2.596z"/><path id="q" d="M950.04 282.325c-.1.16-.205.273-.314.338s-.25.098-.42.098c-.181 0-.373-.051-.578-.15l-.712-.338a6.84 6.84 0 0 0-.923-.338c-.345-.1-.753-.148-1.223-.148-.729 0-1.303.154-1.718.465s-.622.715-.622 1.215c0 .33.107.607.322.832s.5.422.855.592a8.55 8.55 0 0 0 1.207.459l1.373.441 1.372.547c.45.205.853.467 1.208.781a3.59 3.59 0 0 1 .854 1.133c.215.439.322.969.322 1.59 0 .74-.132 1.422-.397 2.047s-.657 1.166-1.177 1.621-1.163.809-1.928 1.064-1.647.383-2.647.383a8.47 8.47 0 0 1-1.553-.143 9.38 9.38 0 0 1-1.455-.398c-.465-.169-.895-.369-1.29-.6s-.742-.48-1.042-.75l.854-1.41c.11-.17.24-.301.391-.391s.34-.135.569-.135.447.066.652.195l.713.42a6.26 6.26 0 0 0 .952.42c.365.131.828.195 1.388.195.44 0 .817-.053 1.133-.158s.575-.242.78-.412.354-.367.449-.592.143-.457.143-.697c0-.361-.107-.656-.322-.885s-.5-.432-.855-.602-.76-.322-1.215-.457l-1.395-.441c-.476-.16-.94-.348-1.396-.563s-.859-.488-1.215-.818-.64-.734-.854-1.215-.323-1.061-.323-1.74c0-.631.125-1.23.375-1.801s.618-1.066 1.103-1.492 1.09-.764 1.815-1.02 1.563-.383 2.513-.383c1.06 0 2.024.176 2.895.525s1.595.811 2.175 1.381l-.839 1.335z"/><path id="r" d="M977.565 287.485c.061.791.2 1.473.42 2.047s.511 1.051.87 1.426a3.42 3.42 0 0 0 1.283.84 4.63 4.63 0 0 0 1.642.277c.601 0 1.118-.07 1.553-.209s.815-.295 1.141-.467l.854-.465c.245-.139.482-.209.713-.209.31 0 .54.115.689.346l1.065 1.35c-.41.479-.87.883-1.38 1.207s-1.043.584-1.598.779-1.12.332-1.695.414-1.132.119-1.672.119c-1.07 0-2.065-.178-2.985-.533s-1.72-.879-2.4-1.574-1.215-1.555-1.604-2.58-.585-2.213-.585-3.563c0-1.051.17-2.037.51-2.963s.827-1.73 1.463-2.414a6.87 6.87 0 0 1 2.324-1.629c.915-.398 1.948-.6 3.098-.6.97 0 1.865.156 2.686.465s1.524.764 2.114 1.357 1.053 1.326 1.388 2.191.503 1.852.503 2.961c0 .561-.061.938-.181 1.133s-.35.293-.689.293h-9.527zm7.066-2.234c0-.48-.067-.934-.202-1.357s-.338-.799-.608-1.119a2.83 2.83 0 0 0-1.027-.756c-.415-.186-.897-.277-1.447-.277-1.07 0-1.912.305-2.527.914s-1.008 1.475-1.178 2.596h6.989z"/><path id="s" d="M362.487 671.374c1.14 0 2.177.185 3.112.555s1.735.896 2.4 1.575 1.178 1.51 1.538 2.49.54 2.075.54 3.285c0 1.22-.18 2.319-.54 3.3s-.873 1.814-1.538 2.505-1.465 1.22-2.4 1.59-1.973.555-3.112.555c-1.15 0-2.195-.185-3.135-.555s-1.743-.9-2.407-1.59-1.18-1.525-1.545-2.505-.548-2.08-.548-3.3c0-1.21.183-2.306.548-3.285s.879-1.811 1.545-2.49 1.467-1.205 2.407-1.575 1.984-.555 3.135-.555zm0 13.005c1.28 0 2.228-.43 2.842-1.29s.922-2.12.922-3.78-.307-2.925-.922-3.795-1.563-1.305-2.842-1.305c-1.3 0-2.263.438-2.888 1.313s-.938 2.138-.938 3.787.313 2.908.938 3.772 1.588 1.298 2.888 1.298z"/><path id="t" d="M110.403 833.605a2.11 2.11 0 0 1-.195.9c-.13.279-.302.524-.518.734s-.467.378-.757.503-.6.188-.93.188c-.32 0-.622-.063-.907-.188s-.533-.293-.743-.503-.377-.455-.502-.734-.188-.58-.188-.9c0-.33.063-.64.188-.93a2.38 2.38 0 0 1 .502-.75c.21-.21.458-.378.743-.503s.587-.188.907-.188c.33 0 .64.063.93.188s.542.293.757.503a2.42 2.42 0 0 1 .518.75c.13.29.195.6.195.93zm-.51 4.486v15.39h-3.72v-15.39h3.72z"/><path id="u" d="M246.541 896.347a2.11 2.11 0 0 1-.195.9c-.13.279-.302.524-.518.734s-.467.378-.757.503-.6.188-.93.188c-.32 0-.622-.063-.907-.188s-.533-.293-.743-.503-.377-.455-.502-.734-.188-.58-.188-.9c0-.33.063-.64.188-.93a2.38 2.38 0 0 1 .502-.75c.21-.21.458-.378.743-.503s.587-.188.907-.188c.33 0 .64.063.93.188s.542.293.757.503a2.42 2.42 0 0 1 .518.75c.13.29.195.6.195.93zm-.511 4.485v15.39h-3.72v-15.39h3.72z"/><path id="v" d="M768.397 902.976c1.77-1.62 3.9-2.43 6.39-2.43.9 0 1.705.147 2.415.442s1.31.705 1.8 1.229.862 1.153 1.117 1.883.383 1.53.383 2.4v9.72h-1.68c-.35 0-.62-.053-.81-.157s-.34-.317-.45-.638l-.33-1.11c-.39.351-.771.658-1.14.923a6.71 6.71 0 0 1-1.155.667 6.2 6.2 0 0 1-1.282.413 7.39 7.39 0 0 1-1.507.143c-.65 0-1.25-.088-1.8-.263a3.97 3.97 0 0 1-1.425-.787 3.54 3.54 0 0 1-.93-1.306c-.22-.52-.33-1.125-.33-1.814 0-.391.065-.777.195-1.163a3.41 3.41 0 0 1 .637-1.103c.295-.35.677-.68 1.147-.989s1.047-.58 1.732-.811 1.482-.417 2.393-.563 1.95-.232 3.12-.263v-.899c0-1.03-.22-1.793-.66-2.288s-1.075-.742-1.905-.742c-.6 0-1.098.07-1.493.21s-.742.298-1.042.473l-.817.473a1.62 1.62 0 0 1-.817.21c-.26 0-.48-.067-.66-.203a1.69 1.69 0 0 1-.435-.472l-.661-1.185zm8.49 6.674c-1.07.051-1.97.143-2.7.277s-1.315.308-1.755.518-.755.455-.945.735-.285.585-.285.915c0 .65.192 1.115.578 1.395s.887.421 1.507.421c.76 0 1.417-.138 1.973-.413s1.097-.692 1.627-1.252v-2.596z"/><path id="w" d="M853.46 969.558a24.83 24.83 0 0 0 .75 6.075c.5 1.99 1.215 3.86 2.145 5.61.1.199.157.377.172.532a.95.95 0 0 1-.038.405.79.79 0 0 1-.188.3 1.51 1.51 0 0 1-.277.218l-1.65 1.005c-.74-1.141-1.371-2.285-1.89-3.436s-.945-2.31-1.275-3.479-.573-2.355-.728-3.556a28.65 28.65 0 0 1-.232-3.675c0-1.25.077-2.478.232-3.683s.397-2.393.728-3.563.755-2.327 1.275-3.472 1.15-2.288 1.89-3.428l1.65.99a1.43 1.43 0 0 1 .277.217c.085.085.147.186.188.3s.053.251.038.405-.073.338-.172.548c-.93 1.74-1.646 3.607-2.145 5.603a24.95 24.95 0 0 0-.75 6.084z"/><path id="x" d="M900.845 1088.204c.62-.65 1.307-1.167 2.063-1.553s1.617-.577 2.587-.577c.89 0 1.692.175 2.407.524a5.17 5.17 0 0 1 1.83 1.508c.505.655.893 1.447 1.163 2.378s.405 1.975.405 3.135c0 1.25-.155 2.385-.465 3.405s-.752 1.893-1.328 2.617-1.267 1.288-2.077 1.688-1.71.6-2.7.6c-.48 0-.915-.047-1.305-.143a4.86 4.86 0 0 1-1.08-.397 4.36 4.36 0 0 1-.908-.622 7.75 7.75 0 0 1-.788-.817l-.165 1.035c-.06.26-.163.444-.307.555s-.343.165-.593.165h-2.445v-22.29h3.705v8.789zm0 9.51c.42.51.877.87 1.373 1.08a3.97 3.97 0 0 0 1.567.315c.57 0 1.082-.103 1.538-.308s.842-.525 1.162-.96.565-.99.735-1.665.255-1.482.255-2.423c0-1.689-.28-2.912-.84-3.667s-1.365-1.133-2.415-1.133c-.71 0-1.33.163-1.86.487s-1.035.783-1.515 1.373v6.901z"/><path id="y" d="M990.903 1094.474c.06.791.2 1.473.42 2.048s.51 1.05.87 1.425.787.655 1.282.84 1.042.278 1.643.278 1.118-.07 1.552-.21.815-.295 1.14-.466l.855-.465c.245-.14.482-.21.712-.21.31 0 .54.115.69.346l1.065 1.35c-.41.479-.87.883-1.38 1.207s-1.042.585-1.597.78-1.12.332-1.695.413-1.132.119-1.672.119c-1.07 0-2.065-.178-2.985-.532a6.67 6.67 0 0 1-2.4-1.575c-.68-.694-1.215-1.555-1.605-2.58s-.585-2.212-.585-3.563c0-1.05.17-2.037.51-2.962s.827-1.73 1.462-2.415 1.41-1.228 2.325-1.628 1.947-.6 3.097-.6c.97 0 1.865.155 2.685.465s1.525.763 2.115 1.357 1.052 1.325 1.387 2.19.503 1.853.503 2.962c0 .561-.06.938-.18 1.133s-.35.292-.69.292h-9.524zm7.065-2.235a4.42 4.42 0 0 0-.203-1.357c-.135-.425-.337-.798-.607-1.118s-.613-.572-1.027-.757-.898-.277-1.448-.277c-1.07 0-1.913.305-2.527.915s-1.008 1.475-1.178 2.595h6.99z"/></defs></svg>